<?xml version="1.0" encoding="UTF-8" standalone="no"?>
<!-- Created with Inkscape (http://www.inkscape.org/) -->

<svg
   xmlns:dc="http://purl.org/dc/elements/1.1/"
   xmlns:cc="http://creativecommons.org/ns#"
   xmlns:rdf="http://www.w3.org/1999/02/22-rdf-syntax-ns#"
   xmlns:svg="http://www.w3.org/2000/svg"
   xmlns="http://www.w3.org/2000/svg"
   xmlns:sodipodi="http://sodipodi.sourceforge.net/DTD/sodipodi-0.dtd"
   xmlns:inkscape="http://www.inkscape.org/namespaces/inkscape"
   width="32"
   height="32"
   viewBox="0 0 32 32"
   id="svg2"
   version="1.1"
   inkscape:version="0.91 r13725"
   sodipodi:docname="donut.svg"
   inkscape:export-filename="/home/rj/Repositories/rjz/pdxdonuts/static/favicon.png"
   inkscape:export-xdpi="60"
   inkscape:export-ydpi="60">
  <defs
     id="defs4" />
  <sodipodi:namedview
     id="base"
     pagecolor="#ffffff"
     bordercolor="#666666"
     borderopacity="1.0"
     inkscape:pageopacity="0.0"
     inkscape:pageshadow="2"
     inkscape:zoom="6.0859374"
     inkscape:cx="19.543512"
     inkscape:cy="5.2392304"
     inkscape:document-units="px"
     inkscape:current-layer="layer1"
     showgrid="false"
     units="px"
     inkscape:window-width="1600"
     inkscape:window-height="876"
     inkscape:window-x="0"
     inkscape:window-y="24"
     inkscape:window-maximized="1"
     inkscape:snap-grids="true"
     inkscape:snap-bbox="true"
     inkscape:bbox-nodes="true">
    <inkscape:grid
       type="xygrid"
       id="grid5318" />
  </sodipodi:namedview>
  <metadata
     id="metadata7">
    <rdf:RDF>
      <cc:Work
         rdf:about="">
        <dc:format>image/svg+xml</dc:format>
        <dc:type
           rdf:resource="http://purl.org/dc/dcmitype/StillImage" />
        <dc:title></dc:title>
      </cc:Work>
    </rdf:RDF>
  </metadata>
  <g
     inkscape:label="Layer 1"
     inkscape:groupmode="layer"
     id="layer1"
     transform="translate(0,-1020.3622)">
    <g
       id="g5340"
       transform="translate(-55.989188,10.7489)">
      <path
         inkscape:connector-curvature="0"
         id="circle5328"
         d="m 71.989188,1009.6133 a 16,16 0 0 0 -16,16 16,16 0 0 0 16,16 16,16 0 0 0 16,-16 16,16 0 0 0 -16,-16 z m 0,12 a 4,4 0 0 1 4,4 4,4 0 0 1 -4,4 4,4 0 0 1 -4,-4 4,4 0 0 1 4,-4 z"
         style="opacity:1;fill:#7f2863;fill-opacity:1;stroke:none;stroke-width:4;stroke-linecap:round;stroke-linejoin:round;stroke-miterlimit:4;stroke-dasharray:none;stroke-dashoffset:0;stroke-opacity:1" />
      <path
         inkscape:connector-curvature="0"
         id="circle5332"
         d="m 71.989188,1011.6133 a 13.999983,13.999983 0 0 0 -14,14 4,4 0 0 0 4,4 4,4 0 0 0 4,-4 6,6 0 0 1 6,-6 6,6 0 0 1 6,6 4,4 0 0 0 4,4 4,4 0 0 0 4,-4 4,4 0 0 0 -0.01758,-0.3437 13.999983,13.999983 0 0 0 -13.982422,-13.6563 z"
         style="opacity:1;fill:#ff00ae;fill-opacity:1;stroke:none;stroke-width:4;stroke-linecap:round;stroke-linejoin:round;stroke-miterlimit:4;stroke-dasharray:none;stroke-dashoffset:0;stroke-opacity:1" />
    </g>
    <path
       style="color:#000000;font-style:normal;font-variant:normal;font-weight:normal;font-stretch:normal;font-size:medium;line-height:normal;font-family:sans-serif;text-indent:0;text-align:start;text-decoration:none;text-decoration-line:none;text-decoration-style:solid;text-decoration-color:#000000;letter-spacing:normal;word-spacing:normal;text-transform:none;direction:ltr;block-progression:tb;writing-mode:lr-tb;baseline-shift:baseline;text-anchor:start;white-space:normal;clip-rule:nonzero;display:inline;overflow:visible;visibility:visible;opacity:1;isolation:auto;mix-blend-mode:normal;color-interpolation:sRGB;color-interpolation-filters:linearRGB;solid-color:#000000;solid-opacity:1;fill:#7f2863;fill-opacity:1;fill-rule:nonzero;stroke:none;stroke-width:1.19007456;stroke-linecap:round;stroke-linejoin:round;stroke-miterlimit:4;stroke-dasharray:none;stroke-dashoffset:0;stroke-opacity:1;color-rendering:auto;image-rendering:auto;shape-rendering:auto;text-rendering:auto;enable-background:accumulate"
       d="m 7.33601,1031.8199 a 0.36715293,0.36715293 0 0 1 -0.518058,0 l -1.913745,-1.9138 a 0.36715293,0.36715293 0 0 1 -8.733e-4,-0.5188 l 0.1397421,-0.1398 a 0.36715293,0.36715293 0 0 1 0.5197585,0 l 1.9137464,1.9138 a 0.36715293,0.36715293 0 0 1 -8.667e-4,0.5188 l -0.139742,0.1398 z"
       id="rect4159"
       inkscape:connector-curvature="0" />
    <path
       inkscape:connector-curvature="0"
       id="path4163"
       d="m 11.073773,1031.8199 a 0.36715293,0.36715293 0 0 1 -0.518058,0 l -1.9137457,-1.9138 a 0.36715293,0.36715293 0 0 1 -8.666e-4,-0.5188 l 0.139742,-0.1398 a 0.36715293,0.36715293 0 0 1 0.5197586,0 l 1.9137467,1.9138 a 0.36715293,0.36715293 0 0 1 -8.67e-4,0.5188 l -0.139742,0.1398 z"
       style="color:#000000;font-style:normal;font-variant:normal;font-weight:normal;font-stretch:normal;font-size:medium;line-height:normal;font-family:sans-serif;text-indent:0;text-align:start;text-decoration:none;text-decoration-line:none;text-decoration-style:solid;text-decoration-color:#000000;letter-spacing:normal;word-spacing:normal;text-transform:none;direction:ltr;block-progression:tb;writing-mode:lr-tb;baseline-shift:baseline;text-anchor:start;white-space:normal;clip-rule:nonzero;display:inline;overflow:visible;visibility:visible;opacity:1;isolation:auto;mix-blend-mode:normal;color-interpolation:sRGB;color-interpolation-filters:linearRGB;solid-color:#000000;solid-opacity:1;fill:#7f2863;fill-opacity:1;fill-rule:nonzero;stroke:none;stroke-width:1.19007456;stroke-linecap:round;stroke-linejoin:round;stroke-miterlimit:4;stroke-dasharray:none;stroke-dashoffset:0;stroke-opacity:1;color-rendering:auto;image-rendering:auto;shape-rendering:auto;text-rendering:auto;enable-background:accumulate" />
    <path
       inkscape:connector-curvature="0"
       id="path4165"
       d="m 13.685087,1026.4817 a 0.36715293,0.36715293 0 0 0 -0.518058,0 l -1.913746,1.9138 a 0.36715293,0.36715293 0 0 0 -8.66e-4,0.519 l 0.139742,0.1397 a 0.36715293,0.36715293 0 0 0 0.519759,0 l 1.913745,-1.9139 a 0.36715293,0.36715293 0 0 0 -8.66e-4,-0.5188 l -0.139741,-0.1398 z"
       style="color:#000000;font-style:normal;font-variant:normal;font-weight:normal;font-stretch:normal;font-size:medium;line-height:normal;font-family:sans-serif;text-indent:0;text-align:start;text-decoration:none;text-decoration-line:none;text-decoration-style:solid;text-decoration-color:#000000;letter-spacing:normal;word-spacing:normal;text-transform:none;direction:ltr;block-progression:tb;writing-mode:lr-tb;baseline-shift:baseline;text-anchor:start;white-space:normal;clip-rule:nonzero;display:inline;overflow:visible;visibility:visible;opacity:1;isolation:auto;mix-blend-mode:normal;color-interpolation:sRGB;color-interpolation-filters:linearRGB;solid-color:#000000;solid-opacity:1;fill:#7f2863;fill-opacity:1;fill-rule:nonzero;stroke:none;stroke-width:1.19007456;stroke-linecap:round;stroke-linejoin:round;stroke-miterlimit:4;stroke-dasharray:none;stroke-dashoffset:0;stroke-opacity:1;color-rendering:auto;image-rendering:auto;shape-rendering:auto;text-rendering:auto;enable-background:accumulate" />
    <path
       style="color:#000000;font-style:normal;font-variant:normal;font-weight:normal;font-stretch:normal;font-size:medium;line-height:normal;font-family:sans-serif;text-indent:0;text-align:start;text-decoration:none;text-decoration-line:none;text-decoration-style:solid;text-decoration-color:#000000;letter-spacing:normal;word-spacing:normal;text-transform:none;direction:ltr;block-progression:tb;writing-mode:lr-tb;baseline-shift:baseline;text-anchor:start;white-space:normal;clip-rule:nonzero;display:inline;overflow:visible;visibility:visible;opacity:1;isolation:auto;mix-blend-mode:normal;color-interpolation:sRGB;color-interpolation-filters:linearRGB;solid-color:#000000;solid-opacity:1;fill:#7f2863;fill-opacity:1;fill-rule:nonzero;stroke:none;stroke-width:1.19007456;stroke-linecap:round;stroke-linejoin:round;stroke-miterlimit:4;stroke-dasharray:none;stroke-dashoffset:0;stroke-opacity:1;color-rendering:auto;image-rendering:auto;shape-rendering:auto;text-rendering:auto;enable-background:accumulate"
       d="m 19.010119,1026.2769 a 0.36715293,0.36715293 0 0 0 -0.518059,0 l -1.913745,1.9138 a 0.36715293,0.36715293 0 0 0 -8.67e-4,0.5189 l 0.139743,0.1397 a 0.36715293,0.36715293 0 0 0 0.519758,0 l 1.913747,-1.9138 a 0.36715293,0.36715293 0 0 0 -8.67e-4,-0.5189 l -0.139742,-0.1397 z"
       id="path4167"
       inkscape:connector-curvature="0" />
    <path
       style="color:#000000;font-style:normal;font-variant:normal;font-weight:normal;font-stretch:normal;font-size:medium;line-height:normal;font-family:sans-serif;text-indent:0;text-align:start;text-decoration:none;text-decoration-line:none;text-decoration-style:solid;text-decoration-color:#000000;letter-spacing:normal;word-spacing:normal;text-transform:none;direction:ltr;block-progression:tb;writing-mode:lr-tb;baseline-shift:baseline;text-anchor:start;white-space:normal;clip-rule:nonzero;display:inline;overflow:visible;visibility:visible;opacity:1;isolation:auto;mix-blend-mode:normal;color-interpolation:sRGB;color-interpolation-filters:linearRGB;solid-color:#000000;solid-opacity:1;fill:#7f2863;fill-opacity:1;fill-rule:nonzero;stroke:none;stroke-width:1.19007456;stroke-linecap:round;stroke-linejoin:round;stroke-miterlimit:4;stroke-dasharray:none;stroke-dashoffset:0;stroke-opacity:1;color-rendering:auto;image-rendering:auto;shape-rendering:auto;text-rendering:auto;enable-background:accumulate"
       d="m 16.552411,1026.3925 a 0.36715293,0.36715293 0 0 1 -0.518058,0 l -1.913746,-1.9137 a 0.36715293,0.36715293 0 0 1 -8.66e-4,-0.5189 l 0.139741,-0.1398 a 0.36715293,0.36715293 0 0 1 0.519759,0 l 1.913747,1.9138 a 0.36715293,0.36715293 0 0 1 -8.67e-4,0.5189 l -0.139743,0.1397 z"
       id="path4169"
       inkscape:connector-curvature="0" />
    <path
       inkscape:connector-curvature="0"
       id="path4171"
       d="m 21.826241,1031.2055 a 0.36715293,0.36715293 0 0 1 -0.518058,0 l -1.913746,-1.9138 a 0.36715293,0.36715293 0 0 1 -8.67e-4,-0.5189 l 0.139743,-0.1397 a 0.36715293,0.36715293 0 0 1 0.519759,0 l 1.913746,1.9137 a 0.36715293,0.36715293 0 0 1 -8.67e-4,0.519 l -0.139742,0.1397 z"
       style="color:#000000;font-style:normal;font-variant:normal;font-weight:normal;font-stretch:normal;font-size:medium;line-height:normal;font-family:sans-serif;text-indent:0;text-align:start;text-decoration:none;text-decoration-line:none;text-decoration-style:solid;text-decoration-color:#000000;letter-spacing:normal;word-spacing:normal;text-transform:none;direction:ltr;block-progression:tb;writing-mode:lr-tb;baseline-shift:baseline;text-anchor:start;white-space:normal;clip-rule:nonzero;display:inline;overflow:visible;visibility:visible;opacity:1;isolation:auto;mix-blend-mode:normal;color-interpolation:sRGB;color-interpolation-filters:linearRGB;solid-color:#000000;solid-opacity:1;fill:#7f2863;fill-opacity:1;fill-rule:nonzero;stroke:none;stroke-width:1.19007456;stroke-linecap:round;stroke-linejoin:round;stroke-miterlimit:4;stroke-dasharray:none;stroke-dashoffset:0;stroke-opacity:1;color-rendering:auto;image-rendering:auto;shape-rendering:auto;text-rendering:auto;enable-background:accumulate" />
    <path
       style="color:#000000;font-style:normal;font-variant:normal;font-weight:normal;font-stretch:normal;font-size:medium;line-height:normal;font-family:sans-serif;text-indent:0;text-align:start;text-decoration:none;text-decoration-line:none;text-decoration-style:solid;text-decoration-color:#000000;letter-spacing:normal;word-spacing:normal;text-transform:none;direction:ltr;block-progression:tb;writing-mode:lr-tb;baseline-shift:baseline;text-anchor:start;white-space:normal;clip-rule:nonzero;display:inline;overflow:visible;visibility:visible;opacity:1;isolation:auto;mix-blend-mode:normal;color-interpolation:sRGB;color-interpolation-filters:linearRGB;solid-color:#000000;solid-opacity:1;fill:#7f2863;fill-opacity:1;fill-rule:nonzero;stroke:none;stroke-width:1.19007456;stroke-linecap:round;stroke-linejoin:round;stroke-miterlimit:4;stroke-dasharray:none;stroke-dashoffset:0;stroke-opacity:1;color-rendering:auto;image-rendering:auto;shape-rendering:auto;text-rendering:auto;enable-background:accumulate"
       d="m 23.259903,1028.2869 a 0.36715293,0.36715293 0 0 1 -0.518058,0 l -1.913746,-1.9137 a 0.36715293,0.36715293 0 0 1 -8.66e-4,-0.5189 l 0.139742,-0.1398 a 0.36715293,0.36715293 0 0 1 0.519759,0 l 1.913747,1.9138 a 0.36715293,0.36715293 0 0 1 -8.67e-4,0.5189 l -0.139743,0.1397 z"
       id="path4173"
       inkscape:connector-curvature="0" />
    <path
       inkscape:connector-curvature="0"
       id="path4175"
       d="m 10.715357,1027.9798 a 0.36715293,0.36715293 0 0 1 -0.518058,0 l -1.913745,-1.9137 a 0.36715293,0.36715293 0 0 1 -8.667e-4,-0.519 l 0.1397414,-0.1397 a 0.36715293,0.36715293 0 0 1 0.5197593,0 l 1.913746,1.9137 a 0.36715293,0.36715293 0 0 1 -8.67e-4,0.519 l -0.139742,0.1397 z"
       style="color:#000000;font-style:normal;font-variant:normal;font-weight:normal;font-stretch:normal;font-size:medium;line-height:normal;font-family:sans-serif;text-indent:0;text-align:start;text-decoration:none;text-decoration-line:none;text-decoration-style:solid;text-decoration-color:#000000;letter-spacing:normal;word-spacing:normal;text-transform:none;direction:ltr;block-progression:tb;writing-mode:lr-tb;baseline-shift:baseline;text-anchor:start;white-space:normal;clip-rule:nonzero;display:inline;overflow:visible;visibility:visible;opacity:1;isolation:auto;mix-blend-mode:normal;color-interpolation:sRGB;color-interpolation-filters:linearRGB;solid-color:#000000;solid-opacity:1;fill:#7f2863;fill-opacity:1;fill-rule:nonzero;stroke:none;stroke-width:1.19007456;stroke-linecap:round;stroke-linejoin:round;stroke-miterlimit:4;stroke-dasharray:none;stroke-dashoffset:0;stroke-opacity:1;color-rendering:auto;image-rendering:auto;shape-rendering:auto;text-rendering:auto;enable-background:accumulate" />
    <path
       inkscape:connector-curvature="0"
       id="path4177"
       d="m 26.076026,1029.2979 a 0.36715293,0.36715293 0 0 0 -0.518057,0 l -1.913747,1.9137 a 0.36715293,0.36715293 0 0 0 -8.67e-4,0.5189 l 0.139742,0.1398 a 0.36715293,0.36715293 0 0 0 0.51976,0 l 1.913746,-1.9138 a 0.36715293,0.36715293 0 0 0 -8.66e-4,-0.5189 l -0.139743,-0.1397 z"
       style="color:#000000;font-style:normal;font-variant:normal;font-weight:normal;font-stretch:normal;font-size:medium;line-height:normal;font-family:sans-serif;text-indent:0;text-align:start;text-decoration:none;text-decoration-line:none;text-decoration-style:solid;text-decoration-color:#000000;letter-spacing:normal;word-spacing:normal;text-transform:none;direction:ltr;block-progression:tb;writing-mode:lr-tb;baseline-shift:baseline;text-anchor:start;white-space:normal;clip-rule:nonzero;display:inline;overflow:visible;visibility:visible;opacity:1;isolation:auto;mix-blend-mode:normal;color-interpolation:sRGB;color-interpolation-filters:linearRGB;solid-color:#000000;solid-opacity:1;fill:#7f2863;fill-opacity:1;fill-rule:nonzero;stroke:none;stroke-width:1.19007456;stroke-linecap:round;stroke-linejoin:round;stroke-miterlimit:4;stroke-dasharray:none;stroke-dashoffset:0;stroke-opacity:1;color-rendering:auto;image-rendering:auto;shape-rendering:auto;text-rendering:auto;enable-background:accumulate" />
    <path
       inkscape:connector-curvature="0"
       id="path4165-6"
       d="m 8.025696,1032.565 a 0.36715293,0.36715293 0 0 0 -0.518058,0 l -1.9137455,1.9137 a 0.36715293,0.36715293 0 0 0 -8.734e-4,0.519 l 0.1397421,0.1398 a 0.36715293,0.36715293 0 0 0 0.5197592,0 l 1.9137456,-1.9138 a 0.36715293,0.36715293 0 0 0 -8.667e-4,-0.519 l -0.139742,-0.1397 z"
       style="color:#000000;font-style:normal;font-variant:normal;font-weight:normal;font-stretch:normal;font-size:medium;line-height:normal;font-family:sans-serif;text-indent:0;text-align:start;text-decoration:none;text-decoration-line:none;text-decoration-style:solid;text-decoration-color:#000000;letter-spacing:normal;word-spacing:normal;text-transform:none;direction:ltr;block-progression:tb;writing-mode:lr-tb;baseline-shift:baseline;text-anchor:start;white-space:normal;clip-rule:nonzero;display:inline;overflow:visible;visibility:visible;opacity:1;isolation:auto;mix-blend-mode:normal;color-interpolation:sRGB;color-interpolation-filters:linearRGB;solid-color:#000000;solid-opacity:1;fill:#7f2863;fill-opacity:1;fill-rule:nonzero;stroke:none;stroke-width:1.19007456;stroke-linecap:round;stroke-linejoin:round;stroke-miterlimit:4;stroke-dasharray:none;stroke-dashoffset:0;stroke-opacity:1;color-rendering:auto;image-rendering:auto;shape-rendering:auto;text-rendering:auto;enable-background:accumulate" />
    <path
       inkscape:connector-curvature="0"
       id="path4165-4"
       d="m 26.011653,1032.625 a 0.36715293,0.36715293 0 0 0 -0.518058,0 l -1.913746,1.9137 a 0.36715293,0.36715293 0 0 0 -8.67e-4,0.519 l 0.139742,0.1398 a 0.36715293,0.36715293 0 0 0 0.519759,0 l 1.913746,-1.9138 a 0.36715293,0.36715293 0 0 0 -8.66e-4,-0.519 l -0.139742,-0.1397 z"
       style="color:#000000;font-style:normal;font-variant:normal;font-weight:normal;font-stretch:normal;font-size:medium;line-height:normal;font-family:sans-serif;text-indent:0;text-align:start;text-decoration:none;text-decoration-line:none;text-decoration-style:solid;text-decoration-color:#000000;letter-spacing:normal;word-spacing:normal;text-transform:none;direction:ltr;block-progression:tb;writing-mode:lr-tb;baseline-shift:baseline;text-anchor:start;white-space:normal;clip-rule:nonzero;display:inline;overflow:visible;visibility:visible;opacity:1;isolation:auto;mix-blend-mode:normal;color-interpolation:sRGB;color-interpolation-filters:linearRGB;solid-color:#000000;solid-opacity:1;fill:#7f2863;fill-opacity:1;fill-rule:nonzero;stroke:none;stroke-width:1.19007456;stroke-linecap:round;stroke-linejoin:round;stroke-miterlimit:4;stroke-dasharray:none;stroke-dashoffset:0;stroke-opacity:1;color-rendering:auto;image-rendering:auto;shape-rendering:auto;text-rendering:auto;enable-background:accumulate" />
    <path
       style="color:#000000;font-style:normal;font-variant:normal;font-weight:normal;font-stretch:normal;font-size:medium;line-height:normal;font-family:sans-serif;text-indent:0;text-align:start;text-decoration:none;text-decoration-line:none;text-decoration-style:solid;text-decoration-color:#000000;letter-spacing:normal;word-spacing:normal;text-transform:none;direction:ltr;block-progression:tb;writing-mode:lr-tb;baseline-shift:baseline;text-anchor:start;white-space:normal;clip-rule:nonzero;display:inline;overflow:visible;visibility:visible;opacity:1;isolation:auto;mix-blend-mode:normal;color-interpolation:sRGB;color-interpolation-filters:linearRGB;solid-color:#000000;solid-opacity:1;fill:#7f2863;fill-opacity:1;fill-rule:nonzero;stroke:none;stroke-width:1.19007456;stroke-linecap:round;stroke-linejoin:round;stroke-miterlimit:4;stroke-dasharray:none;stroke-dashoffset:0;stroke-opacity:1;color-rendering:auto;image-rendering:auto;shape-rendering:auto;text-rendering:auto;enable-background:accumulate"
       d="m 21.826241,1031.2055 a 0.36715293,0.36715293 0 0 1 -0.518058,0 l -1.913746,-1.9138 a 0.36715293,0.36715293 0 0 1 -8.67e-4,-0.5189 l 0.139743,-0.1397 a 0.36715293,0.36715293 0 0 1 0.519759,0 l 1.913746,1.9137 a 0.36715293,0.36715293 0 0 1 -8.67e-4,0.519 l -0.139742,0.1397 z"
       id="path5365"
       inkscape:connector-curvature="0" />
    <path
       style="color:#000000;font-style:normal;font-variant:normal;font-weight:normal;font-stretch:normal;font-size:medium;line-height:normal;font-family:sans-serif;text-indent:0;text-align:start;text-decoration:none;text-decoration-line:none;text-decoration-style:solid;text-decoration-color:#000000;letter-spacing:normal;word-spacing:normal;text-transform:none;direction:ltr;block-progression:tb;writing-mode:lr-tb;baseline-shift:baseline;text-anchor:start;white-space:normal;clip-rule:nonzero;display:inline;overflow:visible;visibility:visible;opacity:1;isolation:auto;mix-blend-mode:normal;color-interpolation:sRGB;color-interpolation-filters:linearRGB;solid-color:#000000;solid-opacity:1;fill:#7f2863;fill-opacity:1;fill-rule:nonzero;stroke:none;stroke-width:1.19007456;stroke-linecap:round;stroke-linejoin:round;stroke-miterlimit:4;stroke-dasharray:none;stroke-dashoffset:0;stroke-opacity:1;color-rendering:auto;image-rendering:auto;shape-rendering:auto;text-rendering:auto;enable-background:accumulate"
       d="m 28.229883,1038.0161 a 0.36715293,0.36715293 0 0 1 -0.518058,0 l -1.913745,-1.9138 a 0.36715293,0.36715293 0 0 1 -8.67e-4,-0.519 l 0.139743,-0.1397 a 0.36715293,0.36715293 0 0 1 0.519759,0 l 1.913747,1.9138 a 0.36715293,0.36715293 0 0 1 -8.67e-4,0.5189 l -0.139742,0.1398 z"
       id="path5365-8"
       inkscape:connector-curvature="0" />
    <path
       style="color:#000000;font-style:normal;font-variant:normal;font-weight:normal;font-stretch:normal;font-size:medium;line-height:normal;font-family:sans-serif;text-indent:0;text-align:start;text-decoration:none;text-decoration-line:none;text-decoration-style:solid;text-decoration-color:#000000;letter-spacing:normal;word-spacing:normal;text-transform:none;direction:ltr;block-progression:tb;writing-mode:lr-tb;baseline-shift:baseline;text-anchor:start;white-space:normal;clip-rule:nonzero;display:inline;overflow:visible;visibility:visible;opacity:1;isolation:auto;mix-blend-mode:normal;color-interpolation:sRGB;color-interpolation-filters:linearRGB;solid-color:#000000;solid-opacity:1;fill:#7f2863;fill-opacity:1;fill-rule:nonzero;stroke:none;stroke-width:1.19007456;stroke-linecap:round;stroke-linejoin:round;stroke-miterlimit:4;stroke-dasharray:none;stroke-dashoffset:0;stroke-opacity:1;color-rendering:auto;image-rendering:auto;shape-rendering:auto;text-rendering:auto;enable-background:accumulate"
       d="m 6.1671104,1037.8961 a 0.36715293,0.36715293 0 0 1 -0.5180576,0 l -1.9137459,-1.9137 a 0.36715293,0.36715293 0 0 1 -8.734e-4,-0.5189 l 0.1397421,-0.1398 a 0.36715293,0.36715293 0 0 1 0.5197591,0 l 1.9137469,1.9138 a 0.36715293,0.36715293 0 0 1 -8.733e-4,0.5189 l -0.1397421,0.1397 z"
       id="path5365-9"
       inkscape:connector-curvature="0" />
  </g>
</svg>
