<?xml version="1.0" encoding="UTF-8" standalone="no"?>
<!-- Created with Inkscape (http://www.inkscape.org/) -->

<svg
   xmlns:dc="http://purl.org/dc/elements/1.1/"
   xmlns:cc="http://creativecommons.org/ns#"
   xmlns:rdf="http://www.w3.org/1999/02/22-rdf-syntax-ns#"
   xmlns:svg="http://www.w3.org/2000/svg"
   xmlns="http://www.w3.org/2000/svg"
   xmlns:sodipodi="http://sodipodi.sourceforge.net/DTD/sodipodi-0.dtd"
   xmlns:inkscape="http://www.inkscape.org/namespaces/inkscape"
   width="9.3133335mm"
   height="9.3133335mm"
   viewBox="0 0 33.000001 33"
   id="svg5377"
   version="1.1"
   inkscape:version="0.91 r13725"
   sodipodi:docname="donut-2.svg">
  <defs
     id="defs5379" />
  <sodipodi:namedview
     id="base"
     pagecolor="#ffffff"
     bordercolor="#666666"
     borderopacity="1.0"
     inkscape:pageopacity="0.0"
     inkscape:pageshadow="2"
     inkscape:zoom="7.9195959"
     inkscape:cx="30.757045"
     inkscape:cy="-0.08623371"
     inkscape:document-units="px"
     inkscape:current-layer="layer1"
     showgrid="false"
     fit-margin-top="0"
     fit-margin-left="0"
     fit-margin-right="0"
     fit-margin-bottom="0"
     inkscape:window-width="1920"
     inkscape:window-height="1056"
     inkscape:window-x="0"
     inkscape:window-y="24"
     inkscape:window-maximized="1" />
  <metadata
     id="metadata5382">
    <rdf:RDF>
      <cc:Work
         rdf:about="">
        <dc:format>image/svg+xml</dc:format>
        <dc:type
           rdf:resource="http://purl.org/dc/dcmitype/StillImage" />
        <dc:title></dc:title>
      </cc:Work>
    </rdf:RDF>
  </metadata>
  <g
     inkscape:label="Layer 1"
     inkscape:groupmode="layer"
     id="layer1"
     transform="translate(602.21429,-121.57649)">
    <g
       transform="translate(-394.59654,-924.06391)"
       id="g4652">
      <path
         style="opacity:1;fill:#edd6b7;fill-opacity:1;stroke:none;stroke-width:1;stroke-linecap:round;stroke-linejoin:round;stroke-miterlimit:4;stroke-dasharray:none;stroke-dashoffset:0;stroke-opacity:1"
         d="m -191.11775,1046.1404 a 16,16 0 0 0 -16,16 16,16 0 0 0 16,16 16,16 0 0 0 16,-16 16,16 0 0 0 -16,-16 z m 0,12 a 4,4 0 0 1 4,4 4,4 0 0 1 -4,4 4,4 0 0 1 -4,-4 4,4 0 0 1 4,-4 z"
         id="path4654"
         inkscape:connector-curvature="0" />
      <path
         style="opacity:1;fill:#ff9270;fill-opacity:1;stroke:none;stroke-width:4;stroke-linecap:round;stroke-linejoin:round;stroke-miterlimit:4;stroke-dasharray:none;stroke-dashoffset:0;stroke-opacity:1"
         d="m -191.11775,1048.1404 a 13.999983,13.999983 0 0 0 -14,14 4,4 0 0 0 4,4 4,4 0 0 0 4,-4 6,6 0 0 1 6,-6 6,6 0 0 1 6,6 4,4 0 0 0 4,4 4,4 0 0 0 4,-4 4,4 0 0 0 -0.0176,-0.3437 13.999983,13.999983 0 0 0 -13.9824,-13.6563 z"
         id="path4656"
         inkscape:connector-curvature="0" />
      <path
         inkscape:connector-curvature="0"
         id="path4658"
         d="m -191.11775,1046.1404 a 16,16 0 0 0 -16,16 16,16 0 0 0 16,16 16,16 0 0 0 16,-16 16,16 0 0 0 -16,-16 z m 0,12 a 4,4 0 0 1 4,4 4,4 0 0 1 -4,4 4,4 0 0 1 -4,-4 4,4 0 0 1 4,-4 z"
         style="opacity:1;fill:none;fill-opacity:1;stroke:#535d6c;stroke-width:1;stroke-linecap:round;stroke-linejoin:round;stroke-miterlimit:4;stroke-dasharray:none;stroke-dashoffset:0;stroke-opacity:1" />
      <path
         style="color:#000000;font-style:normal;font-variant:normal;font-weight:normal;font-stretch:normal;font-size:medium;line-height:normal;font-family:sans-serif;text-indent:0;text-align:start;text-decoration:none;text-decoration-line:none;text-decoration-style:solid;text-decoration-color:#000000;letter-spacing:normal;word-spacing:normal;text-transform:none;direction:ltr;block-progression:tb;writing-mode:lr-tb;baseline-shift:baseline;text-anchor:start;white-space:normal;clip-rule:nonzero;display:inline;overflow:visible;visibility:visible;opacity:1;isolation:auto;mix-blend-mode:normal;color-interpolation:sRGB;color-interpolation-filters:linearRGB;solid-color:#000000;solid-opacity:1;fill:#e96941;fill-opacity:1;fill-rule:nonzero;stroke:none;stroke-width:1.19007456;stroke-linecap:round;stroke-linejoin:round;stroke-miterlimit:4;stroke-dasharray:none;stroke-dashoffset:0;stroke-opacity:1;color-rendering:auto;image-rendering:auto;shape-rendering:auto;text-rendering:auto;enable-background:accumulate"
         d="m -201.70782,1063.2516 a 0.36715293,0.36715293 0 0 1 -0.51806,0 l -1.91374,-1.9138 a 0.36715293,0.36715293 0 0 1 -8.7e-4,-0.519 l 0.13975,-0.1397 a 0.36715293,0.36715293 0 0 1 0.51975,0 l 1.91375,1.9138 a 0.36715293,0.36715293 0 0 1 -8.7e-4,0.5189 l -0.13974,0.1398 z"
         id="path4660"
         inkscape:connector-curvature="0" />
      <path
         inkscape:connector-curvature="0"
         id="path4662"
         d="m -182.77032,1055.3537 a 0.36715293,0.36715293 0 0 0 -0.51806,0 l -1.91374,1.9138 a 0.36715293,0.36715293 0 0 0 -8.7e-4,0.519 l 0.13975,0.1397 a 0.36715293,0.36715293 0 0 0 0.51975,0 l 1.91375,-1.9138 a 0.36715293,0.36715293 0 0 0 -8.7e-4,-0.5189 l -0.13974,-0.1398 z"
         style="color:#000000;font-style:normal;font-variant:normal;font-weight:normal;font-stretch:normal;font-size:medium;line-height:normal;font-family:sans-serif;text-indent:0;text-align:start;text-decoration:none;text-decoration-line:none;text-decoration-style:solid;text-decoration-color:#000000;letter-spacing:normal;word-spacing:normal;text-transform:none;direction:ltr;block-progression:tb;writing-mode:lr-tb;baseline-shift:baseline;text-anchor:start;white-space:normal;clip-rule:nonzero;display:inline;overflow:visible;visibility:visible;opacity:1;isolation:auto;mix-blend-mode:normal;color-interpolation:sRGB;color-interpolation-filters:linearRGB;solid-color:#000000;solid-opacity:1;fill:#e96941;fill-opacity:1;fill-rule:nonzero;stroke:none;stroke-width:1.19007456;stroke-linecap:round;stroke-linejoin:round;stroke-miterlimit:4;stroke-dasharray:none;stroke-dashoffset:0;stroke-opacity:1;color-rendering:auto;image-rendering:auto;shape-rendering:auto;text-rendering:auto;enable-background:accumulate" />
      <path
         style="color:#000000;font-style:normal;font-variant:normal;font-weight:normal;font-stretch:normal;font-size:medium;line-height:normal;font-family:sans-serif;text-indent:0;text-align:start;text-decoration:none;text-decoration-line:none;text-decoration-style:solid;text-decoration-color:#000000;letter-spacing:normal;word-spacing:normal;text-transform:none;direction:ltr;block-progression:tb;writing-mode:lr-tb;baseline-shift:baseline;text-anchor:start;white-space:normal;clip-rule:nonzero;display:inline;overflow:visible;visibility:visible;opacity:1;isolation:auto;mix-blend-mode:normal;color-interpolation:sRGB;color-interpolation-filters:linearRGB;solid-color:#000000;solid-opacity:1;fill:#f6e0de;fill-opacity:1;fill-rule:nonzero;stroke:none;stroke-width:1.19007456;stroke-linecap:round;stroke-linejoin:round;stroke-miterlimit:4;stroke-dasharray:none;stroke-dashoffset:0;stroke-opacity:1;color-rendering:auto;image-rendering:auto;shape-rendering:auto;text-rendering:auto;enable-background:accumulate"
         d="m -199.28418,1057.4282 a 0.36715293,0.36715293 0 0 0 -0.51806,0 l -1.91374,1.9138 a 0.36715293,0.36715293 0 0 0 -8.7e-4,0.519 l 0.13975,0.1397 a 0.36715293,0.36715293 0 0 0 0.51975,0 l 1.91375,-1.9138 a 0.36715293,0.36715293 0 0 0 -8.7e-4,-0.5189 l -0.13974,-0.1398 z"
         id="path4664"
         inkscape:connector-curvature="0" />
      <path
         style="color:#000000;font-style:normal;font-variant:normal;font-weight:normal;font-stretch:normal;font-size:medium;line-height:normal;font-family:sans-serif;text-indent:0;text-align:start;text-decoration:none;text-decoration-line:none;text-decoration-style:solid;text-decoration-color:#000000;letter-spacing:normal;word-spacing:normal;text-transform:none;direction:ltr;block-progression:tb;writing-mode:lr-tb;baseline-shift:baseline;text-anchor:start;white-space:normal;clip-rule:nonzero;display:inline;overflow:visible;visibility:visible;opacity:1;isolation:auto;mix-blend-mode:normal;color-interpolation:sRGB;color-interpolation-filters:linearRGB;solid-color:#000000;solid-opacity:1;fill:#f6e0de;fill-opacity:1;fill-rule:nonzero;stroke:none;stroke-width:1.19007456;stroke-linecap:round;stroke-linejoin:round;stroke-miterlimit:4;stroke-dasharray:none;stroke-dashoffset:0;stroke-opacity:1;color-rendering:auto;image-rendering:auto;shape-rendering:auto;text-rendering:auto;enable-background:accumulate"
         d="m -195.97168,1054.052 a 0.36715293,0.36715293 0 0 1 -0.51806,0 l -1.91374,-1.9138 a 0.36715293,0.36715293 0 0 1 -8.7e-4,-0.519 l 0.13975,-0.1397 a 0.36715293,0.36715293 0 0 1 0.51975,0 l 1.91375,1.9138 a 0.36715293,0.36715293 0 0 1 -8.7e-4,0.5189 l -0.13974,0.1398 z"
         id="path4666"
         inkscape:connector-curvature="0" />
      <path
         style="color:#000000;font-style:normal;font-variant:normal;font-weight:normal;font-stretch:normal;font-size:medium;line-height:normal;font-family:sans-serif;text-indent:0;text-align:start;text-decoration:none;text-decoration-line:none;text-decoration-style:solid;text-decoration-color:#000000;letter-spacing:normal;word-spacing:normal;text-transform:none;direction:ltr;block-progression:tb;writing-mode:lr-tb;baseline-shift:baseline;text-anchor:start;white-space:normal;clip-rule:nonzero;display:inline;overflow:visible;visibility:visible;opacity:1;isolation:auto;mix-blend-mode:normal;color-interpolation:sRGB;color-interpolation-filters:linearRGB;solid-color:#000000;solid-opacity:1;fill:#e96941;fill-opacity:1;fill-rule:nonzero;stroke:none;stroke-width:1.19007456;stroke-linecap:round;stroke-linejoin:round;stroke-miterlimit:4;stroke-dasharray:none;stroke-dashoffset:0;stroke-opacity:1;color-rendering:auto;image-rendering:auto;shape-rendering:auto;text-rendering:auto;enable-background:accumulate"
         d="m -199.14532,1053.6037 a 0.36715293,0.36715293 0 0 0 -0.51806,0 l -1.91374,1.9138 a 0.36715293,0.36715293 0 0 0 -8.7e-4,0.519 l 0.13975,0.1397 a 0.36715293,0.36715293 0 0 0 0.51975,0 l 1.91375,-1.9138 a 0.36715293,0.36715293 0 0 0 -8.7e-4,-0.5189 l -0.13974,-0.1398 z"
         id="path4668"
         inkscape:connector-curvature="0" />
      <path
         inkscape:connector-curvature="0"
         id="path4670"
         d="m -191.95782,1054.8766 a 0.36715293,0.36715293 0 0 1 -0.51806,0 l -1.91374,-1.9138 a 0.36715293,0.36715293 0 0 1 -8.7e-4,-0.519 l 0.13975,-0.1397 a 0.36715293,0.36715293 0 0 1 0.51975,0 l 1.91375,1.9138 a 0.36715293,0.36715293 0 0 1 -8.7e-4,0.5189 l -0.13974,0.1398 z"
         style="color:#000000;font-style:normal;font-variant:normal;font-weight:normal;font-stretch:normal;font-size:medium;line-height:normal;font-family:sans-serif;text-indent:0;text-align:start;text-decoration:none;text-decoration-line:none;text-decoration-style:solid;text-decoration-color:#000000;letter-spacing:normal;word-spacing:normal;text-transform:none;direction:ltr;block-progression:tb;writing-mode:lr-tb;baseline-shift:baseline;text-anchor:start;white-space:normal;clip-rule:nonzero;display:inline;overflow:visible;visibility:visible;opacity:1;isolation:auto;mix-blend-mode:normal;color-interpolation:sRGB;color-interpolation-filters:linearRGB;solid-color:#000000;solid-opacity:1;fill:#e96941;fill-opacity:1;fill-rule:nonzero;stroke:none;stroke-width:1.19007456;stroke-linecap:round;stroke-linejoin:round;stroke-miterlimit:4;stroke-dasharray:none;stroke-dashoffset:0;stroke-opacity:1;color-rendering:auto;image-rendering:auto;shape-rendering:auto;text-rendering:auto;enable-background:accumulate" />
      <path
         inkscape:connector-curvature="0"
         id="path4672"
         d="m -189.53418,1049.0532 a 0.36715293,0.36715293 0 0 0 -0.51806,0 l -1.91374,1.9138 a 0.36715293,0.36715293 0 0 0 -8.7e-4,0.519 l 0.13975,0.1397 a 0.36715293,0.36715293 0 0 0 0.51975,0 l 1.91375,-1.9138 a 0.36715293,0.36715293 0 0 0 -8.7e-4,-0.5189 l -0.13974,-0.1398 z"
         style="color:#000000;font-style:normal;font-variant:normal;font-weight:normal;font-stretch:normal;font-size:medium;line-height:normal;font-family:sans-serif;text-indent:0;text-align:start;text-decoration:none;text-decoration-line:none;text-decoration-style:solid;text-decoration-color:#000000;letter-spacing:normal;word-spacing:normal;text-transform:none;direction:ltr;block-progression:tb;writing-mode:lr-tb;baseline-shift:baseline;text-anchor:start;white-space:normal;clip-rule:nonzero;display:inline;overflow:visible;visibility:visible;opacity:1;isolation:auto;mix-blend-mode:normal;color-interpolation:sRGB;color-interpolation-filters:linearRGB;solid-color:#000000;solid-opacity:1;fill:#f6e0de;fill-opacity:1;fill-rule:nonzero;stroke:none;stroke-width:1.19007456;stroke-linecap:round;stroke-linejoin:round;stroke-miterlimit:4;stroke-dasharray:none;stroke-dashoffset:0;stroke-opacity:1;color-rendering:auto;image-rendering:auto;shape-rendering:auto;text-rendering:auto;enable-background:accumulate" />
      <path
         inkscape:connector-curvature="0"
         id="path4674"
         d="m -194.10392,1049.4505 a 0.36715293,0.36715293 0 0 0 -0.51806,0 l -1.91374,1.9138 a 0.36715293,0.36715293 0 0 0 -8.7e-4,0.519 l 0.13975,0.1397 a 0.36715293,0.36715293 0 0 0 0.51975,0 l 1.91375,-1.9138 a 0.36715293,0.36715293 0 0 0 -8.7e-4,-0.5189 l -0.13974,-0.1398 z"
         style="color:#000000;font-style:normal;font-variant:normal;font-weight:normal;font-stretch:normal;font-size:medium;line-height:normal;font-family:sans-serif;text-indent:0;text-align:start;text-decoration:none;text-decoration-line:none;text-decoration-style:solid;text-decoration-color:#000000;letter-spacing:normal;word-spacing:normal;text-transform:none;direction:ltr;block-progression:tb;writing-mode:lr-tb;baseline-shift:baseline;text-anchor:start;white-space:normal;clip-rule:nonzero;display:inline;overflow:visible;visibility:visible;opacity:1;isolation:auto;mix-blend-mode:normal;color-interpolation:sRGB;color-interpolation-filters:linearRGB;solid-color:#000000;solid-opacity:1;fill:#e96941;fill-opacity:1;fill-rule:nonzero;stroke:none;stroke-width:1.19007456;stroke-linecap:round;stroke-linejoin:round;stroke-miterlimit:4;stroke-dasharray:none;stroke-dashoffset:0;stroke-opacity:1;color-rendering:auto;image-rendering:auto;shape-rendering:auto;text-rendering:auto;enable-background:accumulate" />
      <path
         style="color:#000000;font-style:normal;font-variant:normal;font-weight:normal;font-stretch:normal;font-size:medium;line-height:normal;font-family:sans-serif;text-indent:0;text-align:start;text-decoration:none;text-decoration-line:none;text-decoration-style:solid;text-decoration-color:#000000;letter-spacing:normal;word-spacing:normal;text-transform:none;direction:ltr;block-progression:tb;writing-mode:lr-tb;baseline-shift:baseline;text-anchor:start;white-space:normal;clip-rule:nonzero;display:inline;overflow:visible;visibility:visible;opacity:1;isolation:auto;mix-blend-mode:normal;color-interpolation:sRGB;color-interpolation-filters:linearRGB;solid-color:#000000;solid-opacity:1;fill:#f6e0de;fill-opacity:1;fill-rule:nonzero;stroke:none;stroke-width:1.19007456;stroke-linecap:round;stroke-linejoin:round;stroke-miterlimit:4;stroke-dasharray:none;stroke-dashoffset:0;stroke-opacity:1;color-rendering:auto;image-rendering:auto;shape-rendering:auto;text-rendering:auto;enable-background:accumulate"
         d="m -194.72892,1055.0755 a 0.36715293,0.36715293 0 0 0 -0.51806,0 l -1.91374,1.9138 a 0.36715293,0.36715293 0 0 0 -8.7e-4,0.519 l 0.13975,0.1397 a 0.36715293,0.36715293 0 0 0 0.51975,0 l 1.91375,-1.9138 a 0.36715293,0.36715293 0 0 0 -8.7e-4,-0.5189 l -0.13974,-0.1398 z"
         id="path4676"
         inkscape:connector-curvature="0" />
      <path
         inkscape:connector-curvature="0"
         id="path4678"
         d="m -188.34668,1051.6277 a 0.36715293,0.36715293 0 0 0 -0.51806,0 l -1.91374,1.9138 a 0.36715293,0.36715293 0 0 0 -8.7e-4,0.519 l 0.13975,0.1397 a 0.36715293,0.36715293 0 0 0 0.51975,0 l 1.91375,-1.9138 a 0.36715293,0.36715293 0 0 0 -8.7e-4,-0.5189 l -0.13974,-0.1398 z"
         style="color:#000000;font-style:normal;font-variant:normal;font-weight:normal;font-stretch:normal;font-size:medium;line-height:normal;font-family:sans-serif;text-indent:0;text-align:start;text-decoration:none;text-decoration-line:none;text-decoration-style:solid;text-decoration-color:#000000;letter-spacing:normal;word-spacing:normal;text-transform:none;direction:ltr;block-progression:tb;writing-mode:lr-tb;baseline-shift:baseline;text-anchor:start;white-space:normal;clip-rule:nonzero;display:inline;overflow:visible;visibility:visible;opacity:1;isolation:auto;mix-blend-mode:normal;color-interpolation:sRGB;color-interpolation-filters:linearRGB;solid-color:#000000;solid-opacity:1;fill:#f6e0de;fill-opacity:1;fill-rule:nonzero;stroke:none;stroke-width:1.19007456;stroke-linecap:round;stroke-linejoin:round;stroke-miterlimit:4;stroke-dasharray:none;stroke-dashoffset:0;stroke-opacity:1;color-rendering:auto;image-rendering:auto;shape-rendering:auto;text-rendering:auto;enable-background:accumulate" />
      <path
         style="color:#000000;font-style:normal;font-variant:normal;font-weight:normal;font-stretch:normal;font-size:medium;line-height:normal;font-family:sans-serif;text-indent:0;text-align:start;text-decoration:none;text-decoration-line:none;text-decoration-style:solid;text-decoration-color:#000000;letter-spacing:normal;word-spacing:normal;text-transform:none;direction:ltr;block-progression:tb;writing-mode:lr-tb;baseline-shift:baseline;text-anchor:start;white-space:normal;clip-rule:nonzero;display:inline;overflow:visible;visibility:visible;opacity:1;isolation:auto;mix-blend-mode:normal;color-interpolation:sRGB;color-interpolation-filters:linearRGB;solid-color:#000000;solid-opacity:1;fill:#e96941;fill-opacity:1;fill-rule:nonzero;stroke:none;stroke-width:1.19007456;stroke-linecap:round;stroke-linejoin:round;stroke-miterlimit:4;stroke-dasharray:none;stroke-dashoffset:0;stroke-opacity:1;color-rendering:auto;image-rendering:auto;shape-rendering:auto;text-rendering:auto;enable-background:accumulate"
         d="m -184.33282,1050.8032 a 0.36715293,0.36715293 0 0 0 -0.51806,0 l -1.91374,1.9138 a 0.36715293,0.36715293 0 0 0 -8.7e-4,0.519 l 0.13975,0.1397 a 0.36715293,0.36715293 0 0 0 0.51975,0 l 1.91375,-1.9138 a 0.36715293,0.36715293 0 0 0 -8.7e-4,-0.5189 l -0.13974,-0.1398 z"
         id="path4680"
         inkscape:connector-curvature="0" />
      <path
         style="color:#000000;font-style:normal;font-variant:normal;font-weight:normal;font-stretch:normal;font-size:medium;line-height:normal;font-family:sans-serif;text-indent:0;text-align:start;text-decoration:none;text-decoration-line:none;text-decoration-style:solid;text-decoration-color:#000000;letter-spacing:normal;word-spacing:normal;text-transform:none;direction:ltr;block-progression:tb;writing-mode:lr-tb;baseline-shift:baseline;text-anchor:start;white-space:normal;clip-rule:nonzero;display:inline;overflow:visible;visibility:visible;opacity:1;isolation:auto;mix-blend-mode:normal;color-interpolation:sRGB;color-interpolation-filters:linearRGB;solid-color:#000000;solid-opacity:1;fill:#f6e0de;fill-opacity:1;fill-rule:nonzero;stroke:none;stroke-width:1.19007456;stroke-linecap:round;stroke-linejoin:round;stroke-miterlimit:4;stroke-dasharray:none;stroke-dashoffset:0;stroke-opacity:1;color-rendering:auto;image-rendering:auto;shape-rendering:auto;text-rendering:auto;enable-background:accumulate"
         d="m -180.34668,1056.0016 a 0.36715293,0.36715293 0 0 1 -0.51806,0 l -1.91374,-1.9138 a 0.36715293,0.36715293 0 0 1 -8.7e-4,-0.519 l 0.13975,-0.1397 a 0.36715293,0.36715293 0 0 1 0.51975,0 l 1.91375,1.9138 a 0.36715293,0.36715293 0 0 1 -8.7e-4,0.5189 l -0.13974,0.1398 z"
         id="path4682"
         inkscape:connector-curvature="0" />
      <path
         style="color:#000000;font-style:normal;font-variant:normal;font-weight:normal;font-stretch:normal;font-size:medium;line-height:normal;font-family:sans-serif;text-indent:0;text-align:start;text-decoration:none;text-decoration-line:none;text-decoration-style:solid;text-decoration-color:#000000;letter-spacing:normal;word-spacing:normal;text-transform:none;direction:ltr;block-progression:tb;writing-mode:lr-tb;baseline-shift:baseline;text-anchor:start;white-space:normal;clip-rule:nonzero;display:inline;overflow:visible;visibility:visible;opacity:1;isolation:auto;mix-blend-mode:normal;color-interpolation:sRGB;color-interpolation-filters:linearRGB;solid-color:#000000;solid-opacity:1;fill:#e96941;fill-opacity:1;fill-rule:nonzero;stroke:none;stroke-width:1.19007456;stroke-linecap:round;stroke-linejoin:round;stroke-miterlimit:4;stroke-dasharray:none;stroke-dashoffset:0;stroke-opacity:1;color-rendering:auto;image-rendering:auto;shape-rendering:auto;text-rendering:auto;enable-background:accumulate"
         d="m -186.47892,1056.2293 a 0.36715293,0.36715293 0 0 1 -0.51806,0 l -1.91374,-1.9138 a 0.36715293,0.36715293 0 0 1 -8.7e-4,-0.519 l 0.13975,-0.1397 a 0.36715293,0.36715293 0 0 1 0.51975,0 l 1.91375,1.9138 a 0.36715293,0.36715293 0 0 1 -8.7e-4,0.5189 l -0.13974,0.1398 z"
         id="path4684"
         inkscape:connector-curvature="0" />
      <path
         style="color:#000000;font-style:normal;font-variant:normal;font-weight:normal;font-stretch:normal;font-size:medium;line-height:normal;font-family:sans-serif;text-indent:0;text-align:start;text-decoration:none;text-decoration-line:none;text-decoration-style:solid;text-decoration-color:#000000;letter-spacing:normal;word-spacing:normal;text-transform:none;direction:ltr;block-progression:tb;writing-mode:lr-tb;baseline-shift:baseline;text-anchor:start;white-space:normal;clip-rule:nonzero;display:inline;overflow:visible;visibility:visible;opacity:1;isolation:auto;mix-blend-mode:normal;color-interpolation:sRGB;color-interpolation-filters:linearRGB;solid-color:#000000;solid-opacity:1;fill:#f6e0de;fill-opacity:1;fill-rule:nonzero;stroke:none;stroke-width:1.19007456;stroke-linecap:round;stroke-linejoin:round;stroke-miterlimit:4;stroke-dasharray:none;stroke-dashoffset:0;stroke-opacity:1;color-rendering:auto;image-rendering:auto;shape-rendering:auto;text-rendering:auto;enable-background:accumulate"
         d="m -180.9128,1063.913 a 0.36715293,0.36715293 0 0 1 -0.51806,0 l -1.91374,-1.9138 a 0.36715293,0.36715293 0 0 1 -8.7e-4,-0.519 l 0.13975,-0.1397 a 0.36715293,0.36715293 0 0 1 0.51975,0 l 1.91375,1.9138 a 0.36715293,0.36715293 0 0 1 -8.7e-4,0.5189 l -0.13974,0.1398 z"
         id="path4686"
         inkscape:connector-curvature="0" />
      <path
         style="color:#000000;font-style:normal;font-variant:normal;font-weight:normal;font-stretch:normal;font-size:medium;line-height:normal;font-family:sans-serif;text-indent:0;text-align:start;text-decoration:none;text-decoration-line:none;text-decoration-style:solid;text-decoration-color:#000000;letter-spacing:normal;word-spacing:normal;text-transform:none;direction:ltr;block-progression:tb;writing-mode:lr-tb;baseline-shift:baseline;text-anchor:start;white-space:normal;clip-rule:nonzero;display:inline;overflow:visible;visibility:visible;opacity:1;isolation:auto;mix-blend-mode:normal;color-interpolation:sRGB;color-interpolation-filters:linearRGB;solid-color:#000000;solid-opacity:1;fill:#e96941;fill-opacity:1;fill-rule:nonzero;stroke:none;stroke-width:1.19007456;stroke-linecap:round;stroke-linejoin:round;stroke-miterlimit:4;stroke-dasharray:none;stroke-dashoffset:0;stroke-opacity:1;color-rendering:auto;image-rendering:auto;shape-rendering:auto;text-rendering:auto;enable-background:accumulate"
         d="m -180.85393,1059.9614 a 0.36715293,0.36715293 0 0 1 -0.51806,0 l -1.91374,-1.9138 a 0.36715293,0.36715293 0 0 1 -8.7e-4,-0.519 l 0.13975,-0.1397 a 0.36715293,0.36715293 0 0 1 0.51975,0 l 1.91375,1.9138 a 0.36715293,0.36715293 0 0 1 -8.7e-4,0.5189 l -0.13974,0.1398 z"
         id="path4688"
         inkscape:connector-curvature="0" />
    </g>
  </g>
</svg>
