<?xml version="1.0" encoding="UTF-8" standalone="no"?>
<!-- Created with Inkscape (http://www.inkscape.org/) -->

<svg
   xmlns:dc="http://purl.org/dc/elements/1.1/"
   xmlns:cc="http://creativecommons.org/ns#"
   xmlns:rdf="http://www.w3.org/1999/02/22-rdf-syntax-ns#"
   xmlns:svg="http://www.w3.org/2000/svg"
   xmlns="http://www.w3.org/2000/svg"
   xmlns:sodipodi="http://sodipodi.sourceforge.net/DTD/sodipodi-0.dtd"
   xmlns:inkscape="http://www.inkscape.org/namespaces/inkscape"
   width="48"
   height="48"
   viewBox="0 0 48 48"
   id="svg2"
   version="1.1"
   inkscape:version="0.91 r13725"
   sodipodi:docname="donut.svg">
  <defs
     id="defs4">
    <filter
       inkscape:collect="always"
       style="color-interpolation-filters:sRGB"
       id="filter4466"
       x="-0.028799994"
       width="1.0576"
       y="-0.028800006"
       height="1.0576">
      <feGaussianBlur
         inkscape:collect="always"
         stdDeviation="0.52139051"
         id="feGaussianBlur4468" />
    </filter>
  </defs>
  <sodipodi:namedview
     id="base"
     pagecolor="#ffffff"
     bordercolor="#666666"
     borderopacity="1.0"
     inkscape:pageopacity="0.0"
     inkscape:pageshadow="2"
     inkscape:zoom="2.8284271"
     inkscape:cx="-96.544227"
     inkscape:cy="-26.341105"
     inkscape:document-units="px"
     inkscape:current-layer="layer1"
     showgrid="false"
     units="px"
     inkscape:window-width="1600"
     inkscape:window-height="876"
     inkscape:window-x="0"
     inkscape:window-y="24"
     inkscape:window-maximized="1" />
  <metadata
     id="metadata7">
    <rdf:RDF>
      <cc:Work
         rdf:about="">
        <dc:format>image/svg+xml</dc:format>
        <dc:type
           rdf:resource="http://purl.org/dc/dcmitype/StillImage" />
        <dc:title />
      </cc:Work>
    </rdf:RDF>
  </metadata>
  <g
     inkscape:label="Layer 1"
     inkscape:groupmode="layer"
     id="layer1"
     transform="translate(0,-1004.3622)">
    <path
       id="path4356"
       d="m 24,1007.6376 c -11.998328,0 -21.7246067,9.7263 -21.7246094,21.7246 2.7e-6,11.9983 9.7262814,21.7246 21.7246094,21.7246 11.998328,0 21.724606,-9.7263 21.724609,-21.7246 -3e-6,-11.9983 -9.726281,-21.7246 -21.724609,-21.7246 z m 0,16.0254 a 5.6990209,5.6990209 0 0 1 5.699219,5.6992 A 5.6990209,5.6990209 0 0 1 24,1035.0614 5.6990209,5.6990209 0 0 1 18.300781,1029.3622 5.6990209,5.6990209 0 0 1 24,1023.663 Z"
       style="opacity:1;fill:#3e1431;fill-opacity:0.50753766;stroke:none;stroke-width:5;stroke-linecap:round;stroke-linejoin:round;stroke-miterlimit:4;stroke-dasharray:none;stroke-dashoffset:0;stroke-opacity:1;filter:url(#filter4466)"
       inkscape:connector-curvature="0" />
    <path
       style="opacity:1;fill:#7f2863;fill-opacity:1;stroke:none;stroke-width:5;stroke-linecap:round;stroke-linejoin:round;stroke-miterlimit:4;stroke-dasharray:none;stroke-dashoffset:0;stroke-opacity:1"
       d="M 24 2.2753906 C 12.001672 2.2753906 2.2753933 12.0017 2.2753906 24 C 2.2753933 35.9983 12.001672 45.724609 24 45.724609 C 35.998328 45.724609 45.724606 35.9983 45.724609 24 C 45.724606 12.0017 35.998328 2.2753906 24 2.2753906 z M 24 18.300781 A 5.6990209 5.6990209 0 0 1 29.699219 24 A 5.6990209 5.6990209 0 0 1 24 29.699219 A 5.6990209 5.6990209 0 0 1 18.300781 24 A 5.6990209 5.6990209 0 0 1 24 18.300781 z "
       transform="translate(0,1004.3622)"
       id="circle4140" />
    <path
       inkscape:connector-curvature="0"
       style="opacity:1;fill:#ff00ae;fill-opacity:1;stroke:none;stroke-width:5;stroke-linecap:round;stroke-linejoin:round;stroke-miterlimit:4;stroke-dasharray:none;stroke-dashoffset:0;stroke-opacity:1"
       d="m 24,1008.0713 c -11.206351,0 -20.3188072,9.0845 -20.2908799,20.2909 0.00515,2.0671 2.7514489,4.3545 6.0535778,4.4138 2.9277581,0.053 6.4462061,-1.9585 6.5852891,-4.5542 0.07693,-4.1718 3.479512,-7.5142 7.652013,-7.5166 4.040939,0 7.35361,3.144 7.640454,7.1748 0.255977,3.597 3.639996,4.896 6.699228,4.896 3.335958,0 5.9512,-2.5868 5.9512,-4.4138 0,-11.2064 -9.08453,-20.2909 -20.290882,-20.2909 z"
       id="path4136"
       sodipodi:nodetypes="sssccssss" />
    <path
       style="color:#000000;font-style:normal;font-variant:normal;font-weight:normal;font-stretch:normal;font-size:medium;line-height:normal;font-family:sans-serif;text-indent:0;text-align:start;text-decoration:none;text-decoration-line:none;text-decoration-style:solid;text-decoration-color:#000000;letter-spacing:normal;word-spacing:normal;text-transform:none;direction:ltr;block-progression:tb;writing-mode:lr-tb;baseline-shift:baseline;text-anchor:start;white-space:normal;clip-rule:nonzero;display:inline;overflow:visible;visibility:visible;opacity:1;isolation:auto;mix-blend-mode:normal;color-interpolation:sRGB;color-interpolation-filters:linearRGB;solid-color:#000000;solid-opacity:1;fill:#7f2863;fill-opacity:1;fill-rule:nonzero;stroke:none;stroke-width:1.19007456;stroke-linecap:round;stroke-linejoin:round;stroke-miterlimit:4;stroke-dasharray:none;stroke-dashoffset:0;stroke-opacity:1;color-rendering:auto;image-rendering:auto;shape-rendering:auto;text-rendering:auto;enable-background:accumulate"
       d="m 12.127335,1022.1377 a 0.50312656,0.50312656 0 0 1 -0.709919,0 l -2.6224927,-2.6225 a 0.50312656,0.50312656 0 0 1 -0.0012,-0.7111 l 0.191495,-0.1915 a 0.50312656,0.50312656 0 0 1 0.712249,0 l 2.6224947,2.6225 a 0.50312656,0.50312656 0 0 1 -0.0012,0.7111 l -0.191495,0.1915 z"
       id="rect4159"
       inkscape:connector-curvature="0" />
    <path
       inkscape:connector-curvature="0"
       id="path4163"
       d="m 17.249363,1022.1377 a 0.50312656,0.50312656 0 0 1 -0.709918,0 l -2.622494,-2.6225 a 0.50312656,0.50312656 0 0 1 -0.0012,-0.7111 l 0.191495,-0.1915 a 0.50312656,0.50312656 0 0 1 0.71225,0 l 2.622495,2.6225 a 0.50312656,0.50312656 0 0 1 -0.0012,0.7111 l -0.191495,0.1915 z"
       style="color:#000000;font-style:normal;font-variant:normal;font-weight:normal;font-stretch:normal;font-size:medium;line-height:normal;font-family:sans-serif;text-indent:0;text-align:start;text-decoration:none;text-decoration-line:none;text-decoration-style:solid;text-decoration-color:#000000;letter-spacing:normal;word-spacing:normal;text-transform:none;direction:ltr;block-progression:tb;writing-mode:lr-tb;baseline-shift:baseline;text-anchor:start;white-space:normal;clip-rule:nonzero;display:inline;overflow:visible;visibility:visible;opacity:1;isolation:auto;mix-blend-mode:normal;color-interpolation:sRGB;color-interpolation-filters:linearRGB;solid-color:#000000;solid-opacity:1;fill:#7f2863;fill-opacity:1;fill-rule:nonzero;stroke:none;stroke-width:1.19007456;stroke-linecap:round;stroke-linejoin:round;stroke-miterlimit:4;stroke-dasharray:none;stroke-dashoffset:0;stroke-opacity:1;color-rendering:auto;image-rendering:auto;shape-rendering:auto;text-rendering:auto;enable-background:accumulate" />
    <path
       inkscape:connector-curvature="0"
       id="path4165"
       d="m 20.827767,1014.8225 a 0.50312656,0.50312656 0 0 0 -0.709918,0 l -2.622494,2.6225 a 0.50312656,0.50312656 0 0 0 -0.0012,0.7112 l 0.191495,0.1915 a 0.50312656,0.50312656 0 0 0 0.71225,0 l 2.622494,-2.6226 a 0.50312656,0.50312656 0 0 0 -0.0012,-0.7111 l -0.191495,-0.1915 z"
       style="color:#000000;font-style:normal;font-variant:normal;font-weight:normal;font-stretch:normal;font-size:medium;line-height:normal;font-family:sans-serif;text-indent:0;text-align:start;text-decoration:none;text-decoration-line:none;text-decoration-style:solid;text-decoration-color:#000000;letter-spacing:normal;word-spacing:normal;text-transform:none;direction:ltr;block-progression:tb;writing-mode:lr-tb;baseline-shift:baseline;text-anchor:start;white-space:normal;clip-rule:nonzero;display:inline;overflow:visible;visibility:visible;opacity:1;isolation:auto;mix-blend-mode:normal;color-interpolation:sRGB;color-interpolation-filters:linearRGB;solid-color:#000000;solid-opacity:1;fill:#7f2863;fill-opacity:1;fill-rule:nonzero;stroke:none;stroke-width:1.19007456;stroke-linecap:round;stroke-linejoin:round;stroke-miterlimit:4;stroke-dasharray:none;stroke-dashoffset:0;stroke-opacity:1;color-rendering:auto;image-rendering:auto;shape-rendering:auto;text-rendering:auto;enable-background:accumulate" />
    <path
       style="color:#000000;font-style:normal;font-variant:normal;font-weight:normal;font-stretch:normal;font-size:medium;line-height:normal;font-family:sans-serif;text-indent:0;text-align:start;text-decoration:none;text-decoration-line:none;text-decoration-style:solid;text-decoration-color:#000000;letter-spacing:normal;word-spacing:normal;text-transform:none;direction:ltr;block-progression:tb;writing-mode:lr-tb;baseline-shift:baseline;text-anchor:start;white-space:normal;clip-rule:nonzero;display:inline;overflow:visible;visibility:visible;opacity:1;isolation:auto;mix-blend-mode:normal;color-interpolation:sRGB;color-interpolation-filters:linearRGB;solid-color:#000000;solid-opacity:1;fill:#7f2863;fill-opacity:1;fill-rule:nonzero;stroke:none;stroke-width:1.19007456;stroke-linecap:round;stroke-linejoin:round;stroke-miterlimit:4;stroke-dasharray:none;stroke-dashoffset:0;stroke-opacity:1;color-rendering:auto;image-rendering:auto;shape-rendering:auto;text-rendering:auto;enable-background:accumulate"
       d="m 28.124903,1014.5418 a 0.50312656,0.50312656 0 0 0 -0.709919,0 l -2.622494,2.6226 a 0.50312656,0.50312656 0 0 0 -0.0012,0.7111 l 0.191495,0.1915 a 0.50312656,0.50312656 0 0 0 0.712249,0 l 2.622495,-2.6226 a 0.50312656,0.50312656 0 0 0 -0.0012,-0.7111 l -0.191496,-0.1915 z"
       id="path4167"
       inkscape:connector-curvature="0" />
    <path
       style="color:#000000;font-style:normal;font-variant:normal;font-weight:normal;font-stretch:normal;font-size:medium;line-height:normal;font-family:sans-serif;text-indent:0;text-align:start;text-decoration:none;text-decoration-line:none;text-decoration-style:solid;text-decoration-color:#000000;letter-spacing:normal;word-spacing:normal;text-transform:none;direction:ltr;block-progression:tb;writing-mode:lr-tb;baseline-shift:baseline;text-anchor:start;white-space:normal;clip-rule:nonzero;display:inline;overflow:visible;visibility:visible;opacity:1;isolation:auto;mix-blend-mode:normal;color-interpolation:sRGB;color-interpolation-filters:linearRGB;solid-color:#000000;solid-opacity:1;fill:#7f2863;fill-opacity:1;fill-rule:nonzero;stroke:none;stroke-width:1.19007456;stroke-linecap:round;stroke-linejoin:round;stroke-miterlimit:4;stroke-dasharray:none;stroke-dashoffset:0;stroke-opacity:1;color-rendering:auto;image-rendering:auto;shape-rendering:auto;text-rendering:auto;enable-background:accumulate"
       d="m 24.756994,1014.7003 a 0.50312656,0.50312656 0 0 1 -0.709919,0 l -2.622494,-2.6225 a 0.50312656,0.50312656 0 0 1 -0.0012,-0.7111 l 0.191495,-0.1915 a 0.50312656,0.50312656 0 0 1 0.712249,0 l 2.622495,2.6225 a 0.50312656,0.50312656 0 0 1 -0.0012,0.7111 l -0.191496,0.1915 z"
       id="path4169"
       inkscape:connector-curvature="0" />
    <path
       inkscape:connector-curvature="0"
       id="path4171"
       d="m 31.983965,1021.2957 a 0.50312656,0.50312656 0 0 1 -0.709918,0 l -2.622494,-2.6225 a 0.50312656,0.50312656 0 0 1 -0.0012,-0.7111 l 0.191495,-0.1915 a 0.50312656,0.50312656 0 0 1 0.71225,0 l 2.622495,2.6225 a 0.50312656,0.50312656 0 0 1 -0.0012,0.7112 l -0.191495,0.1914 z"
       style="color:#000000;font-style:normal;font-variant:normal;font-weight:normal;font-stretch:normal;font-size:medium;line-height:normal;font-family:sans-serif;text-indent:0;text-align:start;text-decoration:none;text-decoration-line:none;text-decoration-style:solid;text-decoration-color:#000000;letter-spacing:normal;word-spacing:normal;text-transform:none;direction:ltr;block-progression:tb;writing-mode:lr-tb;baseline-shift:baseline;text-anchor:start;white-space:normal;clip-rule:nonzero;display:inline;overflow:visible;visibility:visible;opacity:1;isolation:auto;mix-blend-mode:normal;color-interpolation:sRGB;color-interpolation-filters:linearRGB;solid-color:#000000;solid-opacity:1;fill:#7f2863;fill-opacity:1;fill-rule:nonzero;stroke:none;stroke-width:1.19007456;stroke-linecap:round;stroke-linejoin:round;stroke-miterlimit:4;stroke-dasharray:none;stroke-dashoffset:0;stroke-opacity:1;color-rendering:auto;image-rendering:auto;shape-rendering:auto;text-rendering:auto;enable-background:accumulate" />
    <path
       style="color:#000000;font-style:normal;font-variant:normal;font-weight:normal;font-stretch:normal;font-size:medium;line-height:normal;font-family:sans-serif;text-indent:0;text-align:start;text-decoration:none;text-decoration-line:none;text-decoration-style:solid;text-decoration-color:#000000;letter-spacing:normal;word-spacing:normal;text-transform:none;direction:ltr;block-progression:tb;writing-mode:lr-tb;baseline-shift:baseline;text-anchor:start;white-space:normal;clip-rule:nonzero;display:inline;overflow:visible;visibility:visible;opacity:1;isolation:auto;mix-blend-mode:normal;color-interpolation:sRGB;color-interpolation-filters:linearRGB;solid-color:#000000;solid-opacity:1;fill:#7f2863;fill-opacity:1;fill-rule:nonzero;stroke:none;stroke-width:1.19007456;stroke-linecap:round;stroke-linejoin:round;stroke-miterlimit:4;stroke-dasharray:none;stroke-dashoffset:0;stroke-opacity:1;color-rendering:auto;image-rendering:auto;shape-rendering:auto;text-rendering:auto;enable-background:accumulate"
       d="m 33.948579,1017.2963 a 0.50312656,0.50312656 0 0 1 -0.709919,0 l -2.622494,-2.6225 a 0.50312656,0.50312656 0 0 1 -0.0012,-0.7111 l 0.191495,-0.1915 a 0.50312656,0.50312656 0 0 1 0.71225,0 l 2.622494,2.6225 a 0.50312656,0.50312656 0 0 1 -0.0012,0.7111 l -0.191495,0.1915 z"
       id="path4173"
       inkscape:connector-curvature="0" />
    <path
       inkscape:connector-curvature="0"
       id="path4175"
       d="m 16.75821,1016.8754 a 0.50312656,0.50312656 0 0 1 -0.709919,0 l -2.622494,-2.6225 a 0.50312656,0.50312656 0 0 1 -0.0012,-0.7111 l 0.191495,-0.1915 a 0.50312656,0.50312656 0 0 1 0.712249,0 l 2.622495,2.6225 a 0.50312656,0.50312656 0 0 1 -0.0012,0.7111 l -0.191496,0.1915 z"
       style="color:#000000;font-style:normal;font-variant:normal;font-weight:normal;font-stretch:normal;font-size:medium;line-height:normal;font-family:sans-serif;text-indent:0;text-align:start;text-decoration:none;text-decoration-line:none;text-decoration-style:solid;text-decoration-color:#000000;letter-spacing:normal;word-spacing:normal;text-transform:none;direction:ltr;block-progression:tb;writing-mode:lr-tb;baseline-shift:baseline;text-anchor:start;white-space:normal;clip-rule:nonzero;display:inline;overflow:visible;visibility:visible;opacity:1;isolation:auto;mix-blend-mode:normal;color-interpolation:sRGB;color-interpolation-filters:linearRGB;solid-color:#000000;solid-opacity:1;fill:#7f2863;fill-opacity:1;fill-rule:nonzero;stroke:none;stroke-width:1.19007456;stroke-linecap:round;stroke-linejoin:round;stroke-miterlimit:4;stroke-dasharray:none;stroke-dashoffset:0;stroke-opacity:1;color-rendering:auto;image-rendering:auto;shape-rendering:auto;text-rendering:auto;enable-background:accumulate" />
    <path
       inkscape:connector-curvature="0"
       id="path4177"
       d="m 37.807642,1018.6816 a 0.50312656,0.50312656 0 0 0 -0.709919,0 l -2.622494,2.6225 a 0.50312656,0.50312656 0 0 0 -0.0012,0.7111 l 0.191495,0.1915 a 0.50312656,0.50312656 0 0 0 0.71225,0 l 2.622495,-2.6225 a 0.50312656,0.50312656 0 0 0 -0.0012,-0.7111 l -0.191495,-0.1915 z"
       style="color:#000000;font-style:normal;font-variant:normal;font-weight:normal;font-stretch:normal;font-size:medium;line-height:normal;font-family:sans-serif;text-indent:0;text-align:start;text-decoration:none;text-decoration-line:none;text-decoration-style:solid;text-decoration-color:#000000;letter-spacing:normal;word-spacing:normal;text-transform:none;direction:ltr;block-progression:tb;writing-mode:lr-tb;baseline-shift:baseline;text-anchor:start;white-space:normal;clip-rule:nonzero;display:inline;overflow:visible;visibility:visible;opacity:1;isolation:auto;mix-blend-mode:normal;color-interpolation:sRGB;color-interpolation-filters:linearRGB;solid-color:#000000;solid-opacity:1;fill:#7f2863;fill-opacity:1;fill-rule:nonzero;stroke:none;stroke-width:1.19007456;stroke-linecap:round;stroke-linejoin:round;stroke-miterlimit:4;stroke-dasharray:none;stroke-dashoffset:0;stroke-opacity:1;color-rendering:auto;image-rendering:auto;shape-rendering:auto;text-rendering:auto;enable-background:accumulate" />
  </g>
</svg>
