<?xml version="1.0" encoding="UTF-8" standalone="no"?>
<!-- Created with Inkscape (http://www.inkscape.org/) -->

<svg
   xmlns:dc="http://purl.org/dc/elements/1.1/"
   xmlns:cc="http://creativecommons.org/ns#"
   xmlns:rdf="http://www.w3.org/1999/02/22-rdf-syntax-ns#"
   xmlns:svg="http://www.w3.org/2000/svg"
   xmlns="http://www.w3.org/2000/svg"
   xmlns:sodipodi="http://sodipodi.sourceforge.net/DTD/sodipodi-0.dtd"
   xmlns:inkscape="http://www.inkscape.org/namespaces/inkscape"
   width="140.91599mm"
   height="2.1193964mm"
   viewBox="0 0 499.30861 7.5096725"
   id="svg4269"
   version="1.1"
   inkscape:version="0.91 r13725"
   sodipodi:docname="hr.svg">
  <defs
     id="defs4271" />
  <sodipodi:namedview
     id="base"
     pagecolor="#ffffff"
     bordercolor="#666666"
     borderopacity="1.0"
     inkscape:pageopacity="0.0"
     inkscape:pageshadow="2"
     inkscape:zoom="1.0650391"
     inkscape:cx="308.70347"
     inkscape:cy="32.69304"
     inkscape:document-units="px"
     inkscape:current-layer="layer1"
     showgrid="false"
     fit-margin-top="0"
     fit-margin-left="0"
     fit-margin-right="0"
     fit-margin-bottom="0"
     inkscape:window-width="1600"
     inkscape:window-height="876"
     inkscape:window-x="0"
     inkscape:window-y="24"
     inkscape:window-maximized="1" />
  <metadata
     id="metadata4274">
    <rdf:RDF>
      <cc:Work
         rdf:about="">
        <dc:format>image/svg+xml</dc:format>
        <dc:type
           rdf:resource="http://purl.org/dc/dcmitype/StillImage" />
        <dc:title></dc:title>
      </cc:Work>
    </rdf:RDF>
  </metadata>
  <g
     inkscape:label="Layer 1"
     inkscape:groupmode="layer"
     id="layer1"
     transform="translate(162.33357,-557.54557)">
    <path
       style="color:#000000;font-style:normal;font-variant:normal;font-weight:normal;font-stretch:normal;font-size:medium;line-height:normal;font-family:sans-serif;text-indent:0;text-align:start;text-decoration:none;text-decoration-line:none;text-decoration-style:solid;text-decoration-color:#000000;letter-spacing:normal;word-spacing:normal;text-transform:none;direction:ltr;block-progression:tb;writing-mode:lr-tb;baseline-shift:baseline;text-anchor:start;white-space:normal;clip-rule:nonzero;display:inline;overflow:visible;visibility:visible;opacity:1;isolation:auto;mix-blend-mode:normal;color-interpolation:sRGB;color-interpolation-filters:linearRGB;solid-color:#000000;solid-opacity:1;fill:#ffffff;fill-opacity:1;fill-rule:nonzero;stroke:none;stroke-width:4;stroke-linecap:round;stroke-linejoin:round;stroke-miterlimit:4;stroke-dasharray:none;stroke-dashoffset:0;stroke-opacity:1;color-rendering:auto;image-rendering:auto;shape-rendering:auto;text-rendering:auto;enable-background:accumulate"
       d="m 30.64548,557.61405 c -25.4114497,-0.0993 -48.81462,8.80427 -74.34988,4.49192 -14.48335,-2.2142 -29.139286,-5.14054 -45.116916,-4.29195 -21.946734,-0.10862 -42.617024,9.06683 -64.510764,4.33055 -12.45168,-1.8569 -11.52136,2.31751 -0.0696,2.22084 21.63378,2.08526 41.73885,-2.61727 61.766014,-4.98189 26.44891,-1.29957 49.426526,8.12808 76.290506,4.99157 19.9863503,-1.54738 39.65889,-7.57716 60.47072,-4.03551 15.51174,2.28908 31.07567,5.24674 48.04394,4.62706 20.5686,-0.6627 38.50961,-7.3753 59.73194,-5.36475 22.18793,2.5506 45.15347,7.8222 68.65715,3.98323 17.18443,-2.17293 35.32934,-6.39389 53.51624,-3.15599 14.7916,2.17025 29.72999,5.09151 45.8374,4.50408 9.41236,1.03681 26.69164,-4.95281 7.11522,-2.18173 -27.95381,3.46187 -51.71952,-7.90839 -79.6848,-4.59242 -20.62984,1.64248 -41.38325,7.6759 -62.79117,3.94691 -14.48334,-2.2142 -29.13928,-5.14054 -45.11691,-4.29195 -21.17348,0.14738 -39.66452,7.5884 -61.37109,5.01881 -16.28528,-1.09001 -31.33042,-5.07588 -48.41797,-5.21878 z"
       id="path4226"
       inkscape:connector-curvature="0" />
  </g>
</svg>
