<?xml version="1.0" encoding="UTF-8" standalone="no"?>
<!-- Created with Inkscape (http://www.inkscape.org/) -->

<svg
   xmlns:dc="http://purl.org/dc/elements/1.1/"
   xmlns:cc="http://creativecommons.org/ns#"
   xmlns:rdf="http://www.w3.org/1999/02/22-rdf-syntax-ns#"
   xmlns:svg="http://www.w3.org/2000/svg"
   xmlns="http://www.w3.org/2000/svg"
   xmlns:sodipodi="http://sodipodi.sourceforge.net/DTD/sodipodi-0.dtd"
   xmlns:inkscape="http://www.inkscape.org/namespaces/inkscape"
   width="65.823631mm"
   height="12.617902mm"
   viewBox="0 0 233.23334 44.709101"
   id="svg4769"
   version="1.1"
   inkscape:version="0.91 r13725"
   sodipodi:docname="logo.svg">
  <defs
     id="defs4771" />
  <sodipodi:namedview
     id="base"
     pagecolor="#ffffff"
     bordercolor="#666666"
     borderopacity="1.0"
     inkscape:pageopacity="0.0"
     inkscape:pageshadow="2"
     inkscape:zoom="0.35"
     inkscape:cx="141.61668"
     inkscape:cy="325.2117"
     inkscape:document-units="px"
     inkscape:current-layer="layer1"
     showgrid="false"
     fit-margin-top="0"
     fit-margin-left="0"
     fit-margin-right="0"
     fit-margin-bottom="0"
     inkscape:window-width="1920"
     inkscape:window-height="1056"
     inkscape:window-x="0"
     inkscape:window-y="24"
     inkscape:window-maximized="1" />
  <metadata
     id="metadata4774">
    <rdf:RDF>
      <cc:Work
         rdf:about="">
        <dc:format>image/svg+xml</dc:format>
        <dc:type
           rdf:resource="http://purl.org/dc/dcmitype/StillImage" />
        <dc:title></dc:title>
      </cc:Work>
    </rdf:RDF>
  </metadata>
  <g
     inkscape:label="Layer 1"
     inkscape:groupmode="layer"
     id="layer1"
     transform="translate(465.1881,-812.8648)">
    <g
       transform="translate(28.265616,-448.9921)"
       id="g4748">
      <path
         inkscape:connector-curvature="0"
         id="path4730"
         style="font-style:normal;font-variant:normal;font-weight:normal;font-stretch:normal;font-size:medium;line-height:125%;font-family:'Leckerli One';-inkscape-font-specification:'Leckerli One, Normal';text-align:start;letter-spacing:0px;word-spacing:0px;writing-mode:lr-tb;text-anchor:start;fill:#ffffff;fill-opacity:1;stroke:none;stroke-width:1px;stroke-linecap:butt;stroke-linejoin:miter;stroke-opacity:1"
         d="m -281.31143,1269.201 c -1.33334,0 -2.63993,2.0535 -3.91992,6.1602 -0.42667,0.027 -0.82589,0.039 -1.19922,0.039 l -0.96093,0 c -0.45333,0.5333 -0.74557,1.0127 -0.87891,1.4394 -0.10666,0.4 -0.16016,0.9206 -0.16016,1.5606 0,0.2666 0.16047,0.4003 0.48047,0.4003 l 1.79883,0 c -0.59332,2.6947 -0.89814,4.8504 -0.94141,6.5137 -0.15792,0.124 -0.33071,0.2702 -0.54687,0.4863 -0.48,0.5067 -1.01294,1.0664 -1.59961,1.6797 -0.58666,0.5867 -1.17311,1.134 -1.75977,1.6407 -0.58667,0.5066 -1.08046,0.7597 -1.48046,0.7597 -0.29333,0 -0.43946,-0.2263 -0.43946,-0.6797 -0.0267,-0.96 0.25318,-2.8138 0.83985,-5.5605 0.58666,-2.7467 0.88086,-4.7734 0.88086,-6.0801 0,-0.9333 -0.0946,-1.6267 -0.28125,-2.0801 -0.16,-0.4533 -0.58597,-0.6797 -1.2793,-0.6797 -2.77333,0 -4.16016,0.8931 -4.16016,2.6797 l 0,0.7207 0,0.959 c 0.0267,0.32 0.041,0.6534 0.041,1 0.0267,0.32 0.0534,0.5875 0.0801,0.8008 -0.26666,2.16 -0.77483,4.1189 -1.52149,5.8789 -0.96,2.2933 -2.09372,3.4414 -3.40039,3.4414 -1.2,0 -1.79883,-0.4814 -1.79883,-1.4414 0,-1.2 0.21396,-2.5725 0.64063,-4.1191 0.42666,-1.5734 0.76,-2.8676 1,-3.8809 0.26666,-1.04 0.33255,-2.2128 0.19922,-3.5195 -0.16,-1.6 -0.85342,-2.4004 -2.08008,-2.4004 -1.54667,0 -2.73388,0.3209 -3.56055,0.9609 l -1.11328,9.4473 c -0.15504,0.123 -0.32122,0.2626 -0.53125,0.4726 -0.48,0.5067 -1.01294,1.0664 -1.59961,1.6797 -0.58667,0.5867 -1.1731,1.134 -1.75976,1.6407 -0.58667,0.5066 -1.08047,0.7597 -1.48047,0.7597 -0.29334,0 -0.43946,-0.2139 -0.43946,-0.6406 0,-0.4267 0.0802,-0.9596 0.24024,-1.5996 0.18666,-0.6667 0.46651,-1.7593 0.83984,-3.2793 0.4,-1.52 0.59961,-3.0138 0.59961,-4.4805 0,-1.4933 -0.46706,-2.6394 -1.40039,-3.4394 -0.93333,-0.8267 -2.33255,-1.2403 -4.19922,-1.2403 -1.84,0 -3.38729,0.6524 -4.64062,1.959 -0.85334,-1.84 -1.75875,-2.7597 -2.71875,-2.7597 -0.56,0 -1.08055,0.3724 -1.56055,1.1191 -1.41333,2.16 -2.3207,4.4933 -2.7207,7 -0.12733,0.7292 -0.22091,1.6961 -0.29297,2.8223 -0.009,0.01 -0.0169,0.011 -0.0254,0.019 -0.21334,0.24 -0.48078,0.5198 -0.80078,0.8398 -0.85334,0.8 -1.86573,1.2136 -3.03907,1.2402 l -0.24023,0 c 0.61333,-1.44 0.91992,-2.8 0.91992,-4.08 0,-1.3067 -0.31898,-2.3745 -0.95898,-3.2012 -0.64,-0.8267 -1.70785,-1.2259 -3.20117,-1.1992 -1.46666,0 -2.67868,0.5329 -3.63868,1.5996 -0.93333,1.04 -1.38798,2.2005 -1.36132,3.4805 0,2.4266 0.9465,4.2785 2.83984,5.5585 -0.85334,0.5334 -1.93357,0.8008 -3.24024,0.8008 -1.28,0 -2.28,-0.3992 -3,-1.1992 -0.69333,-0.8267 -1.03906,-1.841 -1.03906,-3.041 0,-2.2933 0.73255,-4.1864 2.19922,-5.6797 1.49333,-1.52 3.33483,-2.2793 5.52148,-2.2793 2.21334,-0.027 3.31836,-0.255 3.31836,-0.6816 0,-0.56 -0.78604,-1.1589 -2.35937,-1.7989 -0.90667,-0.3733 -2.10628,-0.5605 -3.59961,-0.5605 -3.28,0 -5.93427,1.1461 -7.96094,3.4394 -2.02666,2.2934 -3.02666,5.0279 -3,8.2012 -0.0267,2.24 0.69349,4.1206 2.16016,5.6406 1.46666,1.4934 3.66823,2.2383 6.60156,2.2383 2.96,0 5.49294,-1.2387 7.59961,-3.7187 0.8,0.16 1.77326,0.2402 2.91992,0.2402 1.17334,0 2.23922,-0.4012 3.19922,-1.2012 0.0165,-0.014 0.0306,-0.03 0.0469,-0.045 -0.002,0.2633 -0.008,0.4914 -0.008,0.7657 0,1.4666 0.11938,2.5469 0.35938,3.2402 0.26666,0.6933 0.73372,1.0391 1.40039,1.0391 0.26667,0 0.57325,-0.066 0.91992,-0.1993 2.26667,-0.88 3.40039,-1.773 3.40039,-2.6797 0,-0.3733 -0.14612,-1.04 -0.43945,-2 -0.26667,-0.96 -0.40039,-1.8941 -0.40039,-2.8007 l 0,-0.2793 c 0.34666,-1.76 1.01333,-3.4534 2,-5.0801 1.01333,-1.6533 2.06682,-2.4805 3.16015,-2.4805 1.12,0 1.67969,0.4795 1.67969,1.4395 0,0.5867 -0.0659,1.1607 -0.19922,1.7207 -0.13333,0.56 -0.34729,1.453 -0.64062,2.6797 -0.26667,1.2266 -0.40039,2.5743 -0.40039,4.041 0,3.4133 1.06588,5.1191 3.19922,5.1191 0.0267,0.027 0.0802,0.039 0.16015,0.039 0.85334,0 2.82659,-0.9054 5.91992,-2.7187 0.19759,-0.1862 0.38028,-0.3749 0.55665,-0.5625 0.24858,0.8786 0.74067,1.589 1.48828,2.123 1.14666,0.8 2.77419,1.1992 4.88086,1.1992 1.19999,0 2.26588,-0.3476 3.19921,-1.041 0.93334,-0.72 1.66784,-1.5719 2.20118,-2.5586 0.10666,1.0134 0.35976,1.8529 0.75976,2.5196 0.42666,0.6666 1.14682,1 2.16016,1 0.0533,0.027 0.11922,0.039 0.19922,0.039 0.82667,0 2.78753,-0.9055 5.88086,-2.7188 0.80033,-0.7539 1.41496,-1.5216 1.86718,-2.3008 0.008,0.065 0.0111,0.1592 0.0195,0.2207 0.13336,0.9334 0.34729,1.7605 0.64063,2.4805 0.32,0.6933 0.70683,1.253 1.16016,1.6797 0.48,0.4 1.15906,0.5996 2.03906,0.5996 0.88,0 1.90674,-0.2531 3.08008,-0.7598 1.19457,-0.5043 2.26982,-1.1415 3.22656,-1.9101 0.3079,0.4852 0.72538,0.9506 1.26954,1.3906 1.25333,0.9867 3.13396,1.4785 5.64062,1.4785 2.53334,0 4.5066,-0.4794 5.91993,-1.4394 1.41334,-0.9867 2.12109,-2.3735 2.12109,-4.1602 0,-0.9066 -0.32093,-1.7729 -0.96093,-2.5996 -0.61333,-0.8267 -1.30674,-1.6394 -2.08008,-2.4394 1.09334,-0.3734 2.0131,-1.0009 2.75976,-1.8809 0.77333,-0.9067 1.16016,-1.9869 1.16016,-3.2402 0,-1.28 -0.44032,-2.2533 -1.32031,-2.92 -0.88,-0.6933 -2.21333,-1.0266 -4,-1 -1.78667,0 -3.35876,0.533 -4.71876,1.5996 -1.44,1.2 -2.16016,2.7617 -2.16016,4.6817 0,1.0666 0.2655,1.9988 0.79883,2.7988 0.53334,0.7734 1.14651,1.5078 1.83985,2.2012 0.69333,0.6933 1.38673,1.4135 2.08007,2.1601 0.72,0.72 1.24055,1.5863 1.56055,2.5997 -2.13333,0 -3.69303,-0.5473 -4.67969,-1.6407 -0.42667,-0.48 -0.73325,-0.9862 -0.91992,-1.5195 -0.50666,-1.4667 -0.85435,-2.3473 -1.04101,-2.6406 -0.18667,-0.32 -0.49327,-0.4805 -0.91993,-0.4805 -0.72,0 -1.39906,0.5206 -2.03906,1.5606 -0.28582,0.4846 -0.49776,0.9983 -0.65039,1.5351 -0.34315,0.2583 -0.7112,0.5191 -1.12695,0.7852 -1.33333,0.8266 -2.2531,1.2402 -2.75977,1.2402 -0.61333,0 -0.91991,-1.0678 -0.91993,-3.2012 0,-2.1333 0.27985,-4.8267 0.83985,-8.0801 l 4,0.2012 c 0.29333,0.027 0.54644,-0.321 0.75977,-1.041 0.24,-0.72 0.36133,-1.3188 0.36133,-1.7988 0,-0.1867 -0.0267,-0.3204 -0.0801,-0.4004 -0.0267,-0.1067 -0.29412,-0.1602 -0.80078,-0.1602 -0.48,0 -1.65288,-0.027 -3.51954,-0.08 l 1.64063,-2.8789 c -0.13328,-0.4266 -0.25466,-0.8278 -0.36133,-1.2012 -0.42666,-1.3333 -1.17356,-2.0124 -2.24024,-2.039 z m 15.17775,9.1992 c 0.42667,0 0.74565,0.1337 0.95899,0.4004 0.23999,0.24 0.36133,0.5199 0.36133,0.8399 0,0.6933 -0.5349,1.613 -1.60157,2.7597 -1.25334,-1.3867 -1.87891,-2.5863 -1.87891,-3.5996 0.23999,-0.053 0.54658,-0.1336 0.91992,-0.2402 0.4,-0.1067 0.81357,-0.1602 1.24024,-0.1602 z m -70.82814,3.7598 c 0.58667,0 0.88086,0.4527 0.88086,1.3593 0,0.9067 -0.2283,1.8408 -0.68164,2.8008 -0.69333,-0.6933 -1.03906,-1.5739 -1.03906,-2.6406 0,-0.32 0.0802,-0.6533 0.24023,-1 0.16,-0.3466 0.35961,-0.5195 0.59961,-0.5195 z m -30.78057,-17.9201 c -2.72,0 -5.52039,0.7737 -8.40039,2.3203 -1.17333,0.64 -2.13224,1.3067 -2.8789,2 -0.74667,0.6934 -1.1211,1.2942 -1.1211,1.8008 0,0.3734 0.32094,0.5586 0.96094,0.5586 0.64,0 1.3869,-0.1461 2.24023,-0.4394 4.4,-1.52 7.46589,-2.2937 9.19922,-2.3203 4.88,0 7.33271,3.0802 7.35938,9.2402 0,3.3333 -0.82518,6.1872 -2.47852,8.5605 -0.8,1.12 -1.76086,2.0398 -2.88086,2.7598 -1.12,0.6933 -2.3607,1.0391 -3.7207,1.0391 -1.33333,0 -2.87867,-0.1996 -4.63867,-0.5996 0.26666,-2.6667 0.812,-5.8004 1.63867,-9.4004 0.85333,-3.6 1.28125,-5.7996 1.28125,-6.5996 0,-0.6667 -0.10698,-1.2264 -0.32031,-1.6797 -0.18667,-0.4534 -0.38628,-0.6797 -0.59961,-0.6797 -1.14667,0 -2.13427,0.9321 -2.96094,2.7988 -2.34667,5.12 -3.77263,9.8669 -4.2793,14.2402 -2.21333,-0.5866 -3.53427,-0.8789 -3.96093,-0.8789 -0.42667,0 -0.63868,0.1605 -0.63868,0.4805 0,0.5867 0.41162,1.2657 1.23829,2.0391 0.85333,0.7733 1.92117,1.5202 3.20117,2.2402 0.08,1.0667 0.35984,1.8403 0.83984,2.3203 0.50667,0.4534 1.45318,0.6797 2.83985,0.6797 0.74666,0 1.21372,-0.2531 1.40039,-0.7598 1.68,0.48 3.06682,0.7188 4.16015,0.7188 2.72,0 5.08008,-0.4795 7.08008,-1.4395 2,-0.96 3.65232,-2.2131 4.95898,-3.7597 1.30667,-1.5734 2.27993,-3.3594 2.91993,-5.3594 0.64,-2 0.96093,-4.0267 0.96093,-6.0801 0.0267,-4.8266 -1.3745,-8.4274 -4.20117,-10.8008 -2.4,-2 -5.46588,-3 -9.19922,-3 z m -25.25891,6.6109 c -0.66206,0 -1.32336,0.166 -1.98542,0.497 -1.91261,0.9563 -3.60545,3.0068 -5.07669,6.1516 -0.44137,-0.092 -0.85435,-0.2112 -1.24055,-0.3583 -0.3862,-0.1656 -0.76363,-0.2479 -1.13144,-0.2479 -0.23907,0 -0.3583,0.1647 -0.35829,0.4957 0,0.4782 0.68964,1.0216 2.06893,1.6285 -0.51493,1.2505 -0.97471,2.5929 -1.37929,4.0274 -0.19223,0.6798 -0.3649,1.3581 -0.52801,2.0366 -0.063,0.039 -0.12555,0.08 -0.18857,0.1428 -0.14713,0.1655 -0.33157,0.3585 -0.55226,0.5792 -0.58849,0.5517 -1.28668,0.8369 -2.09586,0.8553 l -0.16568,0 c 0.42298,-0.9931 0.63442,-1.9311 0.63442,-2.8138 0,-0.9012 -0.21999,-1.6376 -0.66136,-2.2077 -0.44137,-0.5701 -1.1778,-0.8454 -2.20766,-0.827 -1.01148,0 -1.84733,0.3675 -2.50939,1.1031 -0.64367,0.7173 -0.95722,1.5176 -0.93884,2.4003 0,1.6736 0.65276,2.9507 1.95848,3.8335 -0.58849,0.3678 -1.33347,0.5522 -2.2346,0.5522 -0.88275,0 -1.57238,-0.2753 -2.06893,-0.827 -0.47815,-0.5701 -0.71658,-1.2697 -0.71658,-2.0972 0,-1.5816 0.50521,-2.8871 1.51668,-3.917 1.02987,-1.0483 2.29983,-1.5719 3.80785,-1.5719 1.52641,-0.018 2.28849,-0.1758 2.28849,-0.4701 0,-0.3862 -0.5421,-0.7992 -1.62714,-1.2405 -0.62526,-0.2575 -1.45257,-0.3866 -2.48244,-0.3866 -2.26203,0 -4.09253,0.7904 -5.4902,2.372 -1.39768,1.5816 -2.08733,3.4674 -2.06893,5.6559 -0.0184,1.5448 0.47826,2.8417 1.48973,3.89 1.01148,1.0299 2.52977,1.5436 4.55272,1.5436 2.04135,0 3.78818,-0.8543 5.24102,-2.5646 0.55172,0.1103 1.22292,0.1657 2.01371,0.1657 0.63587,0 1.22353,-0.1779 1.76856,-0.5186 -0.42141,2.5725 -0.63846,5.1356 -0.63846,7.6898 0,0.6988 0.21144,1.2976 0.63441,1.7941 0.44138,0.515 1.21335,0.7718 2.31677,0.7718 1.12183,0 2.04135,-0.2483 2.75858,-0.7448 0.86435,-0.5885 1.29712,-1.5719 1.29712,-2.9512 0,-0.7724 -0.20289,-3.1819 -0.60747,-7.2278 0.754,0.9379 2.02262,1.4062 3.8065,1.4062 1.14021,0 1.9873,-0.3576 2.53902,-1.0749 0.55171,-0.7356 0.82704,-1.6551 0.82704,-2.7585 0,-0.5517 -0.15612,-0.8284 -0.46875,-0.8284 -0.14712,0 -0.30323,0.1107 -0.46874,0.3314 -0.14713,0.2206 -0.34012,0.469 -0.5792,0.7448 -0.22068,0.2759 -0.48746,0.5242 -0.8001,0.7449 -0.29424,0.2207 -0.67167,0.3313 -1.13144,0.3313 -0.44137,0 -0.8458,-0.2483 -1.21361,-0.7448 -0.3678,-0.4966 -0.62603,-1.3239 -0.77315,-2.4825 -1.12182,0 -2.04135,0.1377 -2.75857,0.4135 0.29424,-1.5999 0.70856,-3.1083 1.24189,-4.5244 2.09652,-0.1103 3.87168,-0.6524 5.32453,-1.6271 1.45286,-0.9931 2.18793,-2.3454 2.20632,-4.0557 0,-0.9012 -0.21998,-1.6362 -0.66135,-2.2063 -0.42299,-0.5701 -1.25163,-0.8653 -2.4838,-0.8836 z m -0.2209,2.7316 c 0.33102,0 0.49702,0.2384 0.49702,0.7166 0,0.8459 -0.43142,1.5725 -1.29577,2.1794 -0.42298,0.3126 -1.30696,0.7638 -2.64946,1.3523 0.66205,-1.4345 1.30626,-2.5015 1.93153,-3.2004 0.64368,-0.6988 1.14887,-1.0479 1.51668,-1.0479 z m -14.31548,9.4341 c 0.40458,0 0.60748,0.3122 0.60748,0.9375 0,0.6253 -0.15746,1.2695 -0.47009,1.9315 -0.47816,-0.4781 -0.71659,-1.0855 -0.71659,-1.8211 0,-0.2207 0.0553,-0.4505 0.16568,-0.6896 0.11034,-0.2391 0.248,-0.3583 0.41352,-0.3583 z m 7.86086,6.4007 c 0.34941,2.6299 0.52395,4.5782 0.52395,5.8472 0,0.3862 -0.0922,0.7452 -0.27612,1.0762 -0.18391,0.3494 -0.38545,0.524 -0.60613,0.524 -0.42298,0 -0.63442,-0.3491 -0.63442,-1.0479 0,-0.092 0.0184,-0.3403 0.0552,-0.7449 0.16551,-1.8758 0.47773,-3.7603 0.93749,-5.6546 z m -77.39604,-25.2963 c -3.04,0 -5.87953,1.1194 -8.51953,3.3594 -0.34667,-0.2133 -0.68,-0.4808 -1,-0.8008 l -1.24023,-1.1992 c -0.48,-0.48 -0.90792,-0.7331 -1.28125,-0.7598 -0.53334,0 -0.79883,0.3601 -0.79883,1.0801 0,0.4 0.17286,0.9988 0.51953,1.7988 0.37333,0.7734 0.86713,1.5203 1.48047,2.2403 -0.8,0.9866 -1.52016,2.0669 -2.16016,3.2402 -1.92,3.5733 -2.88086,7.347 -2.88086,11.3203 0,3.2267 1,5.7472 3,7.5606 2,1.8133 4.81279,2.7187 8.43946,2.7187 2.98666,0 5.57505,-0.7201 7.76172,-2.1602 1.06666,-0.6933 1.91859,-1.5452 2.55859,-2.5585 10e-4,0 0.003,0 0.004,-0.01 0.46325,3.0043 1.71923,4.5254 3.78906,4.5254 2.13333,0.027 4.13333,-0.8397 6,-2.5997 0.83448,-0.7874 1.47472,-1.5837 1.9414,-2.3867 0.008,0.066 0.0108,0.1634 0.0195,0.2266 0.13333,0.9333 0.34729,1.7604 0.64062,2.4805 0.32,0.6933 0.70682,1.253 1.16016,1.6796 0.48,0.4 1.15906,0.5997 2.03906,0.5997 0.88,-10e-5 1.90674,-0.2531 3.08008,-0.7598 1.2,-0.5067 2.28023,-1.1466 3.24023,-1.9199 0.3555,-0.2883 0.67975,-0.589 0.99024,-0.8946 0.23382,0.9239 0.70525,1.6515 1.42578,2.1739 1.09333,0.7466 2.54799,1.121 4.36133,1.1211 2.24,0 4.02604,-0.9198 5.35937,-2.7598 -0.13333,0.6933 -0.38643,1.8394 -0.75977,3.4394 -1.52,0.3734 -2.94791,0.68 -4.28125,0.92 -1.33333,0.2666 -2.50619,0.5589 -3.51953,0.8789 -0.98666,0.3466 -1.77271,0.7746 -2.35937,1.2812 -0.56,0.5067 -0.83985,1.1857 -0.83985,2.0391 0,1.52 0.61318,2.7874 1.83985,3.8008 1.25333,1.0133 2.75953,1.5195 4.51953,1.5195 2.61333,0 4.55984,-0.7737 5.83984,-2.3203 0.58667,-0.72 1.06612,-1.5595 1.43946,-2.5195 0.37333,-0.9601 0.72101,-1.9724 1.04101,-3.0391 2.72,-1.2533 5.01419,-3.0003 6.88086,-5.2402 1.89333,-2.24 2.83984,-4.2009 2.83985,-5.8809 0,-0.8533 -0.18722,-1.2793 -0.56055,-1.2793 -0.24,0 -0.56094,0.2388 -0.96094,0.7188 -0.4,0.4533 -0.89184,1.0273 -1.47851,1.7207 -1.70666,1.9733 -3.42683,3.6399 -5.16016,5 2.26666,-7.5467 3.42518,-12.2525 3.47851,-14.1192 0,-0.56 -0.33333,-1.348 -1,-2.3613 -0.66666,-1.04 -1.37247,-1.573 -2.11914,-1.5996 -0.74666,0.027 -1.25286,0.36 -1.51953,1 -0.16,0.3733 -0.54682,1.5194 -1.16015,3.4394 -0.58667,1.92 -1.22659,4.3603 -1.91993,7.3203 -0.37333,1.0667 -0.82799,1.9597 -1.36132,2.6797 -0.53334,0.72 -1.35852,1.0801 -2.47852,1.0801 -1.12,0 -1.67969,-0.4794 -1.67969,-1.4394 -0.0267,-1.2534 0.49193,-3.7204 1.5586,-7.4004 0.21333,-0.72 0.32031,-1.3991 0.32031,-2.0391 0,-0.6667 -0.0268,-1.2407 -0.0801,-1.7207 -0.16,-1.6 -0.83906,-2.4004 -2.03906,-2.4004 -1.41334,0 -2.53466,0.3209 -3.36133,0.9609 l -1.16016,9.4805 c -0.0255,0.048 -0.0416,0.086 -0.0664,0.1328 -0.19515,0.1835 -0.40179,0.4077 -0.62891,0.7071 -0.58667,0.7733 -1.54752,1.5861 -2.88086,2.4394 -1.33333,0.8267 -2.2531,1.2402 -2.75976,1.2402 -0.61334,0 -0.91992,-1.0678 -0.91992,-3.2011 0,-2.1334 0.27984,-4.8268 0.83984,-8.0801 l 4,0.2012 c 0.29333,0.027 0.54643,-0.321 0.75976,-1.041 0.24,-0.72 0.36133,-1.3189 0.36133,-1.7989 0,-0.1866 -0.0267,-0.3204 -0.0801,-0.4004 -0.0267,-0.1066 -0.29411,-0.1601 -0.80078,-0.1601 -0.48,0 -1.65286,-0.027 -3.51953,-0.08 l 1.64063,-2.8789 c -0.13334,-0.4267 -0.25467,-0.8279 -0.36133,-1.2012 -0.42667,-1.3333 -1.17357,-2.0124 -2.24024,-2.0391 -1.33333,0 -2.63992,2.0535 -3.91992,6.1602 -0.42666,0.027 -0.82588,0.039 -1.19922,0.039 l -0.96093,0 c -0.45334,0.5333 -0.74558,1.0128 -0.87891,1.4394 -0.10667,0.4 -0.16016,0.9206 -0.16016,1.5606 0,0.2666 0.16047,0.4004 0.48047,0.4004 l 1.79883,0 c -0.594,2.6977 -0.89871,4.8555 -0.94141,6.5195 -0.15657,0.1235 -0.32578,0.2672 -0.53906,0.4805 -0.48,0.5066 -1.01294,1.0663 -1.59961,1.6797 -0.58666,0.5866 -1.1731,1.1339 -1.75976,1.6406 -0.58667,0.5067 -1.08047,0.7598 -1.48047,0.7598 -0.37334,0 -0.70667,-0.107 -1,-0.3204 -0.26667,-0.2133 -0.40039,-0.6001 -0.40039,-1.1601 0,-0.56 0.30659,-2.0127 0.91992,-4.3594 0.64,-2.6933 0.96094,-4.574 0.96094,-5.6406 0.0267,-0.7734 -0.14619,-1.5594 -0.51953,-2.3594 -0.45333,-1.04 -1.06652,-1.5605 -1.83985,-1.5605 -1.30667,0 -2.48148,1.7058 -3.52148,5.1191 -0.51193,1.6996 -0.82259,3.5524 -0.94141,5.5508 -0.25515,0.1839 -0.53781,0.4723 -0.85156,0.8906 -0.56,0.72 -1.18557,1.3332 -1.87891,1.8399 -2.10666,1.5466 -4.35976,2.3203 -6.75976,2.3203 -3.89334,0 -5.83985,-2.4403 -5.83985,-7.3203 0,-3.52 0.94651,-6.8945 2.83985,-10.1211 2.21333,0.8533 4.3451,1.2812 6.39843,1.2812 2.08,0 3.73427,-0.4814 4.96094,-1.4414 1.22667,-0.96 1.83985,-2.1452 1.83985,-3.5586 0,-0.9333 -0.16047,-1.7213 -0.48047,-2.3613 -0.90667,-1.7067 -2.89232,-2.5586 -5.95899,-2.5586 z m 0.0391,3.959 c 1.30667,0 1.96094,0.5206 1.96094,1.5606 0,0.88 -0.80039,1.3203 -2.40039,1.3203 -1.6,0 -3.07945,-0.2264 -4.43945,-0.6797 1.46666,-1.4667 3.09225,-2.2012 4.8789,-2.2012 z m 37.84961,30.8809 c -1.01333,2.1866 -2.1451,3.2793 -3.39843,3.2793 -0.56,0.027 -1.14644,-0.1338 -1.75977,-0.4805 -0.58667,-0.3467 -0.88086,-0.7727 -0.88086,-1.2793 -0.0267,-0.4 0.49388,-0.6798 1.56055,-0.8398 0.53333,-0.08 1.17325,-0.1727 1.91992,-0.2793 0.74667,-0.08 1.59859,-0.2138 2.55859,-0.4004 z m -24.77471,-36.5998 c -0.45333,0 -0.8545,0.1996 -1.20117,0.5996 -0.34667,0.3734 -0.71914,0.9722 -1.11914,1.7989 -0.37333,0.8 -0.56055,1.8143 -0.56055,3.041 0,1.2266 0.36008,2.3728 1.08008,3.4394 1.22667,0 2.3193,-0.3868 3.2793,-1.1601 0.98667,-0.8 1.48047,-1.8927 1.48047,-3.2793 0,-0.7467 -0.30659,-1.6664 -0.91992,-2.7598 -0.61334,-1.12 -1.2924,-1.6797 -2.03907,-1.6797 z" />
      <path
         inkscape:connector-curvature="0"
         id="path4732"
         style="font-style:normal;font-variant:normal;font-weight:normal;font-stretch:normal;font-size:medium;line-height:125%;font-family:'Leckerli One';-inkscape-font-specification:'Leckerli One, Normal';text-align:start;letter-spacing:0px;word-spacing:0px;writing-mode:lr-tb;text-anchor:start;fill:#f26a9b;fill-opacity:1;stroke:none;stroke-width:1px;stroke-linecap:butt;stroke-linejoin:miter;stroke-opacity:1"
         d="m -280.59714,1270.451 c -1.33334,0 -2.63993,2.0535 -3.91992,6.1602 -0.42667,0.027 -0.82589,0.039 -1.19922,0.039 l -0.96093,0 c -0.45333,0.5333 -0.74557,1.0127 -0.87891,1.4394 -0.10666,0.4 -0.16016,0.9206 -0.16016,1.5606 0,0.2666 0.16047,0.4003 0.48047,0.4003 l 1.79883,0 c -0.59332,2.6947 -0.89814,4.8504 -0.94141,6.5137 -0.15792,0.124 -0.33071,0.2702 -0.54687,0.4863 -0.48,0.5067 -1.01294,1.0664 -1.59961,1.6797 -0.58666,0.5867 -1.17311,1.134 -1.75977,1.6407 -0.58667,0.5066 -1.08046,0.7597 -1.48046,0.7597 -0.29333,0 -0.43946,-0.2263 -0.43946,-0.6797 -0.0267,-0.96 0.25318,-2.8138 0.83985,-5.5605 0.58666,-2.7467 0.88086,-4.7734 0.88086,-6.0801 0,-0.9333 -0.0946,-1.6267 -0.28125,-2.0801 -0.16,-0.4533 -0.58597,-0.6797 -1.2793,-0.6797 -2.77333,0 -4.16016,0.8931 -4.16016,2.6797 l 0,0.7207 0,0.959 c 0.0267,0.32 0.041,0.6534 0.041,1 0.0267,0.32 0.0534,0.5875 0.0801,0.8008 -0.26666,2.16 -0.77483,4.1189 -1.52149,5.8789 -0.96,2.2933 -2.09372,3.4414 -3.40039,3.4414 -1.2,0 -1.79883,-0.4814 -1.79883,-1.4414 0,-1.2 0.21396,-2.5725 0.64063,-4.1191 0.42666,-1.5734 0.76,-2.8676 1,-3.8809 0.26666,-1.04 0.33255,-2.2128 0.19922,-3.5195 -0.16,-1.6 -0.85342,-2.4004 -2.08008,-2.4004 -1.54667,0 -2.73388,0.3209 -3.56055,0.9609 l -1.11328,9.4473 c -0.15504,0.123 -0.32122,0.2626 -0.53125,0.4726 -0.48,0.5067 -1.01294,1.0664 -1.59961,1.6797 -0.58667,0.5867 -1.1731,1.134 -1.75976,1.6407 -0.58667,0.5066 -1.08047,0.7597 -1.48047,0.7597 -0.29334,0 -0.43946,-0.2139 -0.43946,-0.6406 0,-0.4267 0.0802,-0.9596 0.24024,-1.5996 0.18666,-0.6667 0.46651,-1.7593 0.83984,-3.2793 0.4,-1.52 0.59961,-3.0138 0.59961,-4.4805 0,-1.4933 -0.46706,-2.6394 -1.40039,-3.4394 -0.93333,-0.8267 -2.33255,-1.2403 -4.19922,-1.2403 -1.84,0 -3.38729,0.6524 -4.64062,1.959 -0.85334,-1.84 -1.75875,-2.7597 -2.71875,-2.7597 -0.56,0 -1.08055,0.3724 -1.56055,1.1191 -1.41333,2.16 -2.3207,4.4933 -2.7207,7 -0.12733,0.7292 -0.22091,1.6961 -0.29297,2.8223 -0.009,0.01 -0.0169,0.011 -0.0254,0.019 -0.21334,0.24 -0.48078,0.5198 -0.80078,0.8398 -0.85334,0.8 -1.86573,1.2136 -3.03907,1.2402 l -0.24023,0 c 0.61333,-1.44 0.91992,-2.8 0.91992,-4.08 0,-1.3067 -0.31898,-2.3745 -0.95898,-3.2012 -0.64,-0.8267 -1.70785,-1.2259 -3.20117,-1.1992 -1.46666,0 -2.67868,0.5329 -3.63868,1.5996 -0.93333,1.04 -1.38798,2.2005 -1.36132,3.4805 0,2.4266 0.9465,4.2785 2.83984,5.5585 -0.85334,0.5334 -1.93357,0.8008 -3.24024,0.8008 -1.28,0 -2.28,-0.3992 -3,-1.1992 -0.69333,-0.8267 -1.03906,-1.841 -1.03906,-3.041 0,-2.2933 0.73255,-4.1864 2.19922,-5.6797 1.49333,-1.52 3.33483,-2.2793 5.52148,-2.2793 2.21334,-0.027 3.31836,-0.255 3.31836,-0.6816 0,-0.56 -0.78604,-1.1589 -2.35937,-1.7989 -0.90667,-0.3733 -2.10628,-0.5605 -3.59961,-0.5605 -3.28,0 -5.93427,1.1461 -7.96094,3.4394 -2.02666,2.2934 -3.02666,5.0279 -3,8.2012 -0.0267,2.24 0.69349,4.1206 2.16016,5.6406 1.46666,1.4934 3.66823,2.2383 6.60156,2.2383 2.96,0 5.49294,-1.2387 7.59961,-3.7187 0.8,0.16 1.77326,0.2402 2.91992,0.2402 1.17334,0 2.23922,-0.4012 3.19922,-1.2012 0.0165,-0.014 0.0306,-0.03 0.0469,-0.045 -0.002,0.2633 -0.008,0.4914 -0.008,0.7657 0,1.4666 0.11938,2.5469 0.35938,3.2402 0.26666,0.6933 0.73372,1.0391 1.40039,1.0391 0.26667,0 0.57325,-0.066 0.91992,-0.1993 2.26667,-0.88 3.40039,-1.773 3.40039,-2.6797 0,-0.3733 -0.14612,-1.04 -0.43945,-2 -0.26667,-0.96 -0.40039,-1.8941 -0.40039,-2.8007 l 0,-0.2793 c 0.34666,-1.76 1.01333,-3.4534 2,-5.0801 1.01333,-1.6533 2.06682,-2.4805 3.16015,-2.4805 1.12,0 1.67969,0.4795 1.67969,1.4395 0,0.5867 -0.0659,1.1607 -0.19922,1.7207 -0.13333,0.56 -0.34729,1.453 -0.64062,2.6797 -0.26667,1.2266 -0.40039,2.5743 -0.40039,4.041 0,3.4133 1.06588,5.1191 3.19922,5.1191 0.0267,0.027 0.0802,0.039 0.16015,0.039 0.85334,0 2.82659,-0.9054 5.91992,-2.7187 0.19759,-0.1862 0.38028,-0.3749 0.55665,-0.5625 0.24858,0.8786 0.74067,1.589 1.48828,2.123 1.14666,0.8 2.77419,1.1992 4.88086,1.1992 1.19999,0 2.26588,-0.3476 3.19921,-1.041 0.93334,-0.72 1.66784,-1.5719 2.20118,-2.5586 0.10666,1.0134 0.35976,1.8529 0.75976,2.5196 0.42666,0.6666 1.14682,1 2.16016,1 0.0533,0.027 0.11922,0.039 0.19922,0.039 0.82667,0 2.78753,-0.9055 5.88086,-2.7188 0.80033,-0.7539 1.41496,-1.5216 1.86718,-2.3008 0.008,0.065 0.0111,0.1592 0.0195,0.2207 0.13336,0.9334 0.34729,1.7605 0.64063,2.4805 0.32,0.6933 0.70683,1.253 1.16016,1.6797 0.48,0.4 1.15906,0.5996 2.03906,0.5996 0.88,0 1.90674,-0.2531 3.08008,-0.7598 1.19457,-0.5043 2.26982,-1.1415 3.22656,-1.9101 0.3079,0.4852 0.72538,0.9506 1.26954,1.3906 1.25333,0.9867 3.13396,1.4785 5.64062,1.4785 2.53334,0 4.50659,-0.4794 5.91992,-1.4394 1.41334,-0.9867 2.1211,-2.3735 2.1211,-4.1602 0,-0.9066 -0.32094,-1.7729 -0.96094,-2.5996 -0.61333,-0.8267 -1.30674,-1.6394 -2.08008,-2.4394 1.09334,-0.3734 2.0131,-1.0009 2.75977,-1.8809 0.77332,-0.9067 1.16016,-1.9869 1.16016,-3.2402 0,-1.28 -0.44032,-2.2533 -1.32032,-2.92 -0.88,-0.6933 -2.21333,-1.0266 -4,-1 -1.78666,0 -3.35875,0.533 -4.71875,1.5996 -1.44,1.2 -2.16016,2.7617 -2.16016,4.6817 0,1.0666 0.2655,1.9988 0.79883,2.7988 0.53334,0.7734 1.14651,1.5078 1.83985,2.2012 0.69333,0.6933 1.38673,1.4135 2.08007,2.1601 0.72,0.72 1.24055,1.5863 1.56055,2.5997 -2.13333,0 -3.69303,-0.5473 -4.67969,-1.6407 -0.42667,-0.48 -0.73325,-0.9862 -0.91992,-1.5195 -0.50666,-1.4667 -0.85435,-2.3473 -1.04101,-2.6406 -0.18667,-0.32 -0.49327,-0.4805 -0.91993,-0.4805 -0.72,0 -1.39906,0.5206 -2.03906,1.5606 -0.28582,0.4846 -0.49776,0.9983 -0.65039,1.5351 -0.34315,0.2583 -0.7112,0.5191 -1.12695,0.7852 -1.33333,0.8266 -2.2531,1.2402 -2.75977,1.2402 -0.61333,0 -0.91991,-1.0678 -0.91993,-3.2012 0,-2.1333 0.27985,-4.8267 0.83985,-8.0801 l 4,0.2012 c 0.29333,0.027 0.54644,-0.321 0.75977,-1.041 0.24,-0.72 0.36133,-1.3188 0.36133,-1.7988 0,-0.1867 -0.0267,-0.3204 -0.0801,-0.4004 -0.0267,-0.1067 -0.29412,-0.1602 -0.80078,-0.1602 -0.48,0 -1.65288,-0.027 -3.51954,-0.08 l 1.64063,-2.8789 c -0.13328,-0.4266 -0.25466,-0.8278 -0.36133,-1.2012 -0.42666,-1.3333 -1.17356,-2.0124 -2.24024,-2.039 z m 15.17774,9.1992 c 0.42667,0 0.74565,0.1337 0.95899,0.4004 0.23999,0.24 0.36133,0.5199 0.36133,0.8399 0,0.6933 -0.5349,1.613 -1.60157,2.7597 -1.25333,-1.3867 -1.8789,-2.5863 -1.8789,-3.5996 0.23999,-0.053 0.54658,-0.1336 0.91992,-0.2402 0.4,-0.1067 0.81356,-0.1602 1.24023,-0.1602 z m -70.82813,3.7598 c 0.58667,0 0.88086,0.4527 0.88086,1.3593 0,0.9067 -0.2283,1.8408 -0.68164,2.8008 -0.69333,-0.6933 -1.03906,-1.5739 -1.03906,-2.6406 0,-0.32 0.0802,-0.6533 0.24023,-1 0.16,-0.3466 0.35961,-0.5195 0.59961,-0.5195 z m -30.78057,-17.9201 c -2.72,0 -5.52039,0.7737 -8.40039,2.3203 -1.17333,0.64 -2.13224,1.3067 -2.8789,2 -0.74667,0.6934 -1.1211,1.2942 -1.1211,1.8008 0,0.3734 0.32094,0.5586 0.96094,0.5586 0.64,0 1.3869,-0.1461 2.24023,-0.4394 4.4,-1.52 7.46589,-2.2937 9.19922,-2.3204 4.88,0 7.33271,3.0803 7.35938,9.2403 0,3.3333 -0.82518,6.1872 -2.47852,8.5605 -0.8,1.12 -1.76086,2.0398 -2.88086,2.7598 -1.12,0.6933 -2.3607,1.0391 -3.7207,1.0391 -1.33333,0 -2.87867,-0.1996 -4.63867,-0.5997 0.26666,-2.6666 0.812,-5.8003 1.63867,-9.4003 0.85333,-3.6 1.28125,-5.7996 1.28125,-6.5997 0,-0.6666 -0.10698,-1.2263 -0.32031,-1.6796 -0.18667,-0.4534 -0.38628,-0.6797 -0.59961,-0.6797 -1.14667,0 -2.13427,0.9321 -2.96094,2.7988 -2.34667,5.12 -3.77263,9.8669 -4.2793,14.2402 -2.21333,-0.5866 -3.53427,-0.8789 -3.96093,-0.8789 -0.42667,0 -0.63868,0.1605 -0.63868,0.4805 0,0.5867 0.41162,1.2657 1.23829,2.0391 0.85333,0.7733 1.92117,1.5202 3.20117,2.2402 0.08,1.0667 0.35984,1.8403 0.83984,2.3203 0.50667,0.4534 1.45318,0.6797 2.83985,0.6797 0.74666,0 1.21372,-0.2531 1.40039,-0.7598 1.68,0.48 3.06682,0.7188 4.16015,0.7188 2.72,0 5.08008,-0.4795 7.08008,-1.4395 2,-0.96 3.65232,-2.2131 4.95898,-3.7597 1.30667,-1.5734 2.27993,-3.3594 2.91993,-5.3594 0.64,-2 0.96093,-4.0267 0.96093,-6.0801 0.0267,-4.8266 -1.3745,-8.4274 -4.20117,-10.8008 -2.4,-2 -5.46588,-3 -9.19922,-3 z m -25.25891,6.6109 c -0.66206,0 -1.32336,0.166 -1.98542,0.497 -1.91261,0.9563 -3.60545,3.0068 -5.07669,6.1516 -0.44137,-0.092 -0.85435,-0.2112 -1.24055,-0.3583 -0.3862,-0.1656 -0.76363,-0.2479 -1.13144,-0.2479 -0.23907,0 -0.3583,0.1647 -0.35829,0.4957 0,0.4782 0.68964,1.0216 2.06893,1.6285 -0.51493,1.2505 -0.97471,2.5929 -1.37929,4.0274 -0.19223,0.6798 -0.3649,1.3581 -0.52801,2.0366 -0.063,0.039 -0.12555,0.08 -0.18857,0.1428 -0.14713,0.1655 -0.33157,0.3585 -0.55226,0.5792 -0.58849,0.5517 -1.28668,0.8369 -2.09586,0.8553 l -0.16568,0 c 0.42298,-0.9931 0.63442,-1.9311 0.63442,-2.8138 0,-0.9012 -0.21999,-1.6376 -0.66136,-2.2077 -0.44137,-0.5701 -1.1778,-0.8454 -2.20766,-0.827 -1.01148,0 -1.84733,0.3675 -2.50939,1.1031 -0.64367,0.7173 -0.95722,1.5176 -0.93884,2.4003 0,1.6736 0.65276,2.9507 1.95848,3.8335 -0.58849,0.3678 -1.33347,0.5522 -2.2346,0.5522 -0.88275,0 -1.57238,-0.2753 -2.06893,-0.827 -0.47815,-0.5701 -0.71658,-1.2697 -0.71658,-2.0972 0,-1.5816 0.50521,-2.8871 1.51668,-3.917 1.02987,-1.0483 2.29983,-1.5719 3.80785,-1.5719 1.52641,-0.018 2.28849,-0.1758 2.28849,-0.4701 0,-0.3862 -0.5421,-0.7992 -1.62714,-1.2405 -0.62526,-0.2575 -1.45257,-0.3866 -2.48244,-0.3866 -2.26203,0 -4.09253,0.7904 -5.4902,2.372 -1.39768,1.5816 -2.08733,3.4674 -2.06893,5.6559 -0.0184,1.5448 0.47826,2.8417 1.48973,3.89 1.01148,1.0299 2.52977,1.5436 4.55272,1.5436 2.04135,0 3.78818,-0.8543 5.24102,-2.5646 0.55172,0.1103 1.22292,0.1657 2.01371,0.1657 0.63587,0 1.22353,-0.1779 1.76856,-0.5186 -0.42141,2.5725 -0.63846,5.1356 -0.63846,7.6898 0,0.6988 0.21144,1.2976 0.63441,1.7941 0.44138,0.515 1.21335,0.7718 2.31677,0.7718 1.12183,0 2.04135,-0.2483 2.75858,-0.7448 0.86435,-0.5885 1.29712,-1.5719 1.29712,-2.9512 0,-0.7724 -0.20289,-3.1819 -0.60747,-7.2278 0.754,0.9379 2.02262,1.4062 3.8065,1.4062 1.14021,0 1.9873,-0.3576 2.53902,-1.0749 0.55171,-0.7356 0.82704,-1.6551 0.82704,-2.7585 0,-0.5517 -0.15612,-0.8284 -0.46875,-0.8284 -0.14712,0 -0.30323,0.1107 -0.46874,0.3314 -0.14713,0.2206 -0.34012,0.469 -0.5792,0.7448 -0.22068,0.2759 -0.48746,0.5242 -0.8001,0.7449 -0.29424,0.2207 -0.67167,0.3313 -1.13144,0.3313 -0.44137,0 -0.8458,-0.2483 -1.21361,-0.7448 -0.3678,-0.4966 -0.62603,-1.3239 -0.77315,-2.4825 -1.12182,0 -2.04135,0.1377 -2.75857,0.4135 0.29424,-1.5999 0.70856,-3.1083 1.24189,-4.5244 2.09652,-0.1103 3.87168,-0.6524 5.32453,-1.6271 1.45286,-0.9931 2.18793,-2.3454 2.20632,-4.0557 0,-0.9012 -0.21998,-1.6362 -0.66135,-2.2063 -0.42299,-0.5701 -1.25163,-0.8653 -2.4838,-0.8836 z m -0.2209,2.7316 c 0.33102,0 0.49702,0.2384 0.49702,0.7166 0,0.8459 -0.43142,1.5725 -1.29577,2.1794 -0.42298,0.3126 -1.30696,0.7638 -2.64946,1.3523 0.66205,-1.4345 1.30626,-2.5015 1.93153,-3.2004 0.64368,-0.6988 1.14887,-1.0479 1.51668,-1.0479 z m -14.31548,9.4341 c 0.40458,0 0.60748,0.3122 0.60748,0.9375 0,0.6253 -0.15746,1.2695 -0.47009,1.9315 -0.47816,-0.4781 -0.71659,-1.0855 -0.71659,-1.8211 0,-0.2207 0.0553,-0.4505 0.16568,-0.6896 0.11034,-0.2391 0.248,-0.3583 0.41352,-0.3583 z m 7.86086,6.4007 c 0.34941,2.6299 0.52395,4.5782 0.52395,5.8472 0,0.3862 -0.0922,0.7452 -0.27612,1.0762 -0.18391,0.3494 -0.38545,0.524 -0.60613,0.524 -0.42298,0 -0.63442,-0.3491 -0.63442,-1.0479 0,-0.092 0.0184,-0.3403 0.0552,-0.7449 0.16551,-1.8758 0.47773,-3.7603 0.93749,-5.6546 z m -77.39604,-25.2963 c -3.04,0 -5.87953,1.1194 -8.51953,3.3594 -0.34667,-0.2133 -0.68,-0.4808 -1,-0.8008 l -1.24023,-1.1992 c -0.48,-0.48 -0.90792,-0.7331 -1.28125,-0.7598 -0.53334,0 -0.79883,0.3601 -0.79883,1.0801 0,0.4 0.17286,0.9988 0.51953,1.7988 0.37333,0.7734 0.86713,1.5203 1.48047,2.2403 -0.8,0.9866 -1.52016,2.0669 -2.16016,3.2402 -1.92,3.5733 -2.88086,7.347 -2.88086,11.3203 0,3.2267 1,5.7472 3,7.5606 2,1.8133 4.81279,2.7187 8.43946,2.7187 2.98666,0 5.57505,-0.7201 7.76172,-2.1602 1.06666,-0.6933 1.91859,-1.5452 2.55859,-2.5585 0.001,0 0.003,0 0.004,-0.01 0.46325,3.0043 1.71923,4.5254 3.78906,4.5254 2.13333,0.027 4.13333,-0.8397 6,-2.5997 0.83448,-0.7874 1.47472,-1.5837 1.9414,-2.3867 0.008,0.066 0.0108,0.1634 0.0195,0.2266 0.13333,0.9333 0.34729,1.7604 0.64062,2.4805 0.32,0.6933 0.70682,1.253 1.16016,1.6796 0.48,0.4 1.15906,0.5997 2.03906,0.5997 0.88,-10e-5 1.90674,-0.2531 3.08008,-0.7598 1.2,-0.5067 2.28023,-1.1466 3.24023,-1.9199 0.3555,-0.2883 0.67975,-0.589 0.99024,-0.8946 0.23382,0.9239 0.70525,1.6515 1.42578,2.1739 1.09333,0.7466 2.54799,1.121 4.36133,1.1211 2.24,0 4.02604,-0.9198 5.35937,-2.7598 -0.13333,0.6933 -0.38643,1.8394 -0.75977,3.4394 -1.52,0.3734 -2.94791,0.68 -4.28125,0.92 -1.33333,0.2666 -2.50619,0.5589 -3.51953,0.8789 -0.98666,0.3466 -1.77271,0.7746 -2.35937,1.2812 -0.56,0.5067 -0.83985,1.1857 -0.83985,2.0391 0,1.52 0.61318,2.7874 1.83985,3.8008 1.25333,1.0133 2.75953,1.5195 4.51953,1.5195 2.61333,0 4.55984,-0.7737 5.83984,-2.3203 0.58667,-0.72 1.06612,-1.5595 1.43946,-2.5195 0.37333,-0.9601 0.72101,-1.9724 1.04101,-3.0391 2.72,-1.2533 5.01419,-3.0003 6.88086,-5.2402 1.89333,-2.24 2.83984,-4.2009 2.83985,-5.8809 0,-0.8533 -0.18722,-1.2793 -0.56055,-1.2793 -0.24,0 -0.56094,0.2388 -0.96094,0.7188 -0.4,0.4533 -0.89184,1.0273 -1.47851,1.7207 -1.70666,1.9733 -3.42683,3.6399 -5.16016,5 2.26666,-7.5467 3.42518,-12.2525 3.47851,-14.1192 0,-0.56 -0.33333,-1.348 -1,-2.3613 -0.66666,-1.04 -1.37247,-1.573 -2.11914,-1.5996 -0.74666,0.027 -1.25286,0.36 -1.51953,1 -0.16,0.3733 -0.54682,1.5194 -1.16015,3.4394 -0.58667,1.92 -1.22659,4.3603 -1.91993,7.3203 -0.37333,1.0667 -0.82799,1.9597 -1.36132,2.6797 -0.53334,0.72 -1.35852,1.0801 -2.47852,1.0801 -1.12,0 -1.67969,-0.4794 -1.67969,-1.4394 -0.0267,-1.2534 0.49193,-3.7204 1.5586,-7.4004 0.21333,-0.72 0.32031,-1.3991 0.32031,-2.0391 0,-0.6667 -0.0268,-1.2407 -0.0801,-1.7207 -0.16,-1.6 -0.83906,-2.4004 -2.03906,-2.4004 -1.41334,0 -2.53466,0.3209 -3.36133,0.9609 l -1.16016,9.4805 c -0.0255,0.048 -0.0416,0.086 -0.0664,0.1328 -0.19515,0.1835 -0.40179,0.4077 -0.62891,0.7071 -0.58667,0.7733 -1.54752,1.5861 -2.88086,2.4394 -1.33333,0.8267 -2.2531,1.2402 -2.75976,1.2402 -0.61334,0 -0.91992,-1.0678 -0.91992,-3.2011 0,-2.1334 0.27984,-4.8268 0.83984,-8.0801 l 4,0.2012 c 0.29333,0.027 0.54643,-0.321 0.75976,-1.041 0.24,-0.72 0.36133,-1.3189 0.36133,-1.7989 0,-0.1866 -0.0267,-0.3204 -0.0801,-0.4004 -0.0267,-0.1066 -0.29411,-0.1601 -0.80078,-0.1601 -0.48,0 -1.65286,-0.027 -3.51953,-0.08 l 1.64063,-2.8789 c -0.13334,-0.4267 -0.25467,-0.8279 -0.36133,-1.2012 -0.42667,-1.3333 -1.17357,-2.0124 -2.24024,-2.0391 -1.33333,0 -2.63992,2.0535 -3.91992,6.1602 -0.42666,0.027 -0.82588,0.039 -1.19922,0.039 l -0.96093,0 c -0.45334,0.5333 -0.74558,1.0128 -0.87891,1.4394 -0.10667,0.4 -0.16016,0.9206 -0.16016,1.5606 0,0.2666 0.16047,0.4004 0.48047,0.4004 l 1.79883,0 c -0.594,2.6977 -0.89871,4.8555 -0.94141,6.5195 -0.15657,0.1235 -0.32578,0.2672 -0.53906,0.4805 -0.48,0.5066 -1.01294,1.0663 -1.59961,1.6797 -0.58666,0.5866 -1.1731,1.1339 -1.75976,1.6406 -0.58667,0.5067 -1.08047,0.7598 -1.48047,0.7598 -0.37334,0 -0.70667,-0.107 -1,-0.3204 -0.26667,-0.2133 -0.40039,-0.6001 -0.40039,-1.1601 0,-0.56 0.30659,-2.0127 0.91992,-4.3594 0.64,-2.6933 0.96094,-4.574 0.96094,-5.6406 0.0267,-0.7734 -0.14619,-1.5594 -0.51953,-2.3594 -0.45333,-1.04 -1.06652,-1.5605 -1.83985,-1.5605 -1.30667,0 -2.48148,1.7058 -3.52148,5.1191 -0.51193,1.6996 -0.82259,3.5524 -0.94141,5.5508 -0.25515,0.1839 -0.53781,0.4723 -0.85156,0.8906 -0.56,0.72 -1.18557,1.3332 -1.87891,1.8399 -2.10666,1.5466 -4.35976,2.3203 -6.75976,2.3203 -3.89334,0 -5.83985,-2.4403 -5.83985,-7.3203 0,-3.52 0.94651,-6.8945 2.83985,-10.1211 2.21333,0.8533 4.3451,1.2812 6.39843,1.2812 2.08,0 3.73427,-0.4814 4.96094,-1.4414 1.22667,-0.96 1.83985,-2.1452 1.83985,-3.5586 0,-0.9333 -0.16047,-1.7213 -0.48047,-2.3613 -0.90667,-1.7067 -2.89232,-2.5586 -5.95899,-2.5586 z m 0.0391,3.959 c 1.30667,0 1.96094,0.5206 1.96094,1.5606 0,0.88 -0.80039,1.3203 -2.40039,1.3203 -1.6,0 -3.07945,-0.2264 -4.43945,-0.6797 1.46666,-1.4667 3.09225,-2.2012 4.8789,-2.2012 z m 37.84961,30.8809 c -1.01333,2.1866 -2.1451,3.2793 -3.39843,3.2793 -0.56,0.027 -1.14644,-0.1338 -1.75977,-0.4805 -0.58667,-0.3467 -0.88086,-0.7727 -0.88086,-1.2793 -0.0267,-0.4 0.49388,-0.6798 1.56055,-0.8398 0.53333,-0.08 1.17325,-0.1727 1.91992,-0.2793 0.74667,-0.08 1.59859,-0.2138 2.55859,-0.4004 z m -24.77471,-36.5998 c -0.45333,0 -0.8545,0.1996 -1.20117,0.5996 -0.34667,0.3734 -0.71914,0.9722 -1.11914,1.7989 -0.37333,0.8 -0.56055,1.8143 -0.56055,3.041 0,1.2266 0.36008,2.3728 1.08008,3.4394 1.22667,0 2.3193,-0.3868 3.2793,-1.1601 0.98667,-0.8 1.48047,-1.8927 1.48047,-3.2793 0,-0.7467 -0.30659,-1.6664 -0.91992,-2.7598 -0.61334,-1.12 -1.2924,-1.6797 -2.03907,-1.6797 z" />
      <path
         inkscape:connector-curvature="0"
         id="path4739"
         style="font-style:normal;font-variant:normal;font-weight:normal;font-stretch:normal;font-size:medium;line-height:125%;font-family:'Leckerli One';-inkscape-font-specification:'Leckerli One, Normal';text-align:start;letter-spacing:0px;word-spacing:0px;writing-mode:lr-tb;text-anchor:start;fill:none;fill-opacity:1;stroke:#535d6c;stroke-width:1;stroke-linecap:butt;stroke-linejoin:miter;stroke-miterlimit:4;stroke-dasharray:2, 2;stroke-dashoffset:0;stroke-opacity:1"
         d="m -281.31143,1269.201 c -1.33334,0 -2.63993,2.0535 -3.91992,6.1602 -0.42667,0.027 -0.82589,0.039 -1.19922,0.039 l -0.96093,0 c -0.45333,0.5333 -0.74557,1.0127 -0.87891,1.4394 -0.10666,0.4 -0.16016,0.9206 -0.16016,1.5606 0,0.2666 0.16047,0.4003 0.48047,0.4003 l 1.79883,0 c -0.59332,2.6947 -0.89814,4.8504 -0.94141,6.5137 -0.15792,0.124 -0.33071,0.2702 -0.54687,0.4863 -0.48,0.5067 -1.01294,1.0664 -1.59961,1.6797 -0.58666,0.5867 -1.17311,1.134 -1.75977,1.6407 -0.58667,0.5066 -1.08046,0.7597 -1.48046,0.7597 -0.29333,0 -0.43946,-0.2263 -0.43946,-0.6797 -0.0267,-0.96 0.25318,-2.8138 0.83985,-5.5605 0.58666,-2.7467 0.88086,-4.7734 0.88086,-6.0801 0,-0.9333 -0.0946,-1.6267 -0.28125,-2.0801 -0.16,-0.4533 -0.58597,-0.6797 -1.2793,-0.6797 -2.77333,0 -4.16016,0.8931 -4.16016,2.6797 l 0,0.7207 0,0.959 c 0.0267,0.32 0.041,0.6534 0.041,1 0.0267,0.32 0.0534,0.5875 0.0801,0.8008 -0.26666,2.16 -0.77483,4.1189 -1.52149,5.8789 -0.96,2.2933 -2.09372,3.4414 -3.40039,3.4414 -1.2,0 -1.79883,-0.4814 -1.79883,-1.4414 0,-1.2 0.21396,-2.5725 0.64063,-4.1191 0.42666,-1.5734 0.76,-2.8676 1,-3.8809 0.26666,-1.04 0.33255,-2.2128 0.19922,-3.5195 -0.16,-1.6 -0.85342,-2.4004 -2.08008,-2.4004 -1.54667,0 -2.73388,0.3209 -3.56055,0.9609 l -1.11328,9.4473 c -0.15504,0.123 -0.32122,0.2626 -0.53125,0.4726 -0.48,0.5067 -1.01294,1.0664 -1.59961,1.6797 -0.58667,0.5867 -1.1731,1.134 -1.75976,1.6407 -0.58667,0.5066 -1.08047,0.7597 -1.48047,0.7597 -0.29334,0 -0.43946,-0.2139 -0.43946,-0.6406 0,-0.4267 0.0802,-0.9596 0.24024,-1.5996 0.18666,-0.6667 0.46651,-1.7593 0.83984,-3.2793 0.4,-1.52 0.59961,-3.0138 0.59961,-4.4805 0,-1.4933 -0.46706,-2.6394 -1.40039,-3.4394 -0.93333,-0.8267 -2.33255,-1.2403 -4.19922,-1.2403 -1.84,0 -3.38729,0.6524 -4.64062,1.959 -0.85334,-1.84 -1.75875,-2.7597 -2.71875,-2.7597 -0.56,0 -1.08055,0.3724 -1.56055,1.1191 -1.41333,2.16 -2.3207,4.4933 -2.7207,7 -0.12733,0.7292 -0.22091,1.6961 -0.29297,2.8223 -0.009,0.01 -0.0169,0.011 -0.0254,0.019 -0.21334,0.24 -0.48078,0.5198 -0.80078,0.8398 -0.85334,0.8 -1.86573,1.2136 -3.03907,1.2402 l -0.24023,0 c 0.61333,-1.44 0.91992,-2.8 0.91992,-4.08 0,-1.3067 -0.31898,-2.3745 -0.95898,-3.2012 -0.64,-0.8267 -1.70785,-1.2259 -3.20117,-1.1992 -1.46666,0 -2.67868,0.5329 -3.63868,1.5996 -0.93333,1.04 -1.38798,2.2005 -1.36132,3.4805 0,2.4266 0.9465,4.2785 2.83984,5.5585 -0.85334,0.5334 -1.93357,0.8008 -3.24024,0.8008 -1.28,0 -2.28,-0.3992 -3,-1.1992 -0.69333,-0.8267 -1.03906,-1.841 -1.03906,-3.041 0,-2.2933 0.73255,-4.1864 2.19922,-5.6797 1.49333,-1.52 3.33483,-2.2793 5.52148,-2.2793 2.21334,-0.027 3.31836,-0.255 3.31836,-0.6816 0,-0.56 -0.78604,-1.1589 -2.35937,-1.7989 -0.90667,-0.3733 -2.10628,-0.5605 -3.59961,-0.5605 -3.28,0 -5.93427,1.1461 -7.96094,3.4394 -2.02666,2.2934 -3.02666,5.0279 -3,8.2012 -0.0267,2.24 0.69349,4.1206 2.16016,5.6406 1.46666,1.4934 3.66823,2.2383 6.60156,2.2383 2.96,0 5.49294,-1.2387 7.59961,-3.7187 0.8,0.16 1.77326,0.2402 2.91992,0.2402 1.17334,0 2.23922,-0.4012 3.19922,-1.2012 0.0165,-0.014 0.0306,-0.03 0.0469,-0.045 -0.002,0.2633 -0.008,0.4914 -0.008,0.7657 0,1.4666 0.11938,2.5469 0.35938,3.2402 0.26666,0.6933 0.73372,1.0391 1.40039,1.0391 0.26667,0 0.57325,-0.066 0.91992,-0.1993 2.26667,-0.88 3.40039,-1.773 3.40039,-2.6797 0,-0.3733 -0.14612,-1.04 -0.43945,-2 -0.26667,-0.96 -0.40039,-1.8941 -0.40039,-2.8007 l 0,-0.2793 c 0.34666,-1.76 1.01333,-3.4534 2,-5.0801 1.01333,-1.6533 2.06682,-2.4805 3.16015,-2.4805 1.12,0 1.67969,0.4795 1.67969,1.4395 0,0.5867 -0.0659,1.1607 -0.19922,1.7207 -0.13333,0.56 -0.34729,1.453 -0.64062,2.6797 -0.26667,1.2266 -0.40039,2.5743 -0.40039,4.041 0,3.4133 1.06588,5.1191 3.19922,5.1191 0.0267,0.027 0.0802,0.039 0.16015,0.039 0.85334,0 2.82659,-0.9054 5.91992,-2.7187 0.19759,-0.1862 0.38028,-0.3749 0.55665,-0.5625 0.24858,0.8786 0.74067,1.589 1.48828,2.123 1.14666,0.8 2.77419,1.1992 4.88086,1.1992 1.19999,0 2.26588,-0.3476 3.19921,-1.041 0.93334,-0.72 1.66784,-1.5719 2.20118,-2.5586 0.10666,1.0134 0.35976,1.8529 0.75976,2.5196 0.42666,0.6666 1.14682,1 2.16016,1 0.0533,0.027 0.11922,0.039 0.19922,0.039 0.82667,0 2.78753,-0.9055 5.88086,-2.7188 0.80033,-0.7539 1.41496,-1.5216 1.86718,-2.3008 0.008,0.065 0.0111,0.1592 0.0195,0.2207 0.13336,0.9334 0.34729,1.7605 0.64063,2.4805 0.32,0.6933 0.70683,1.253 1.16016,1.6797 0.48,0.4 1.15906,0.5996 2.03906,0.5996 0.88,0 1.90674,-0.2531 3.08008,-0.7598 1.19457,-0.5043 2.26982,-1.1415 3.22656,-1.9101 0.3079,0.4852 0.72538,0.9506 1.26954,1.3906 1.25333,0.9867 3.13396,1.4785 5.64062,1.4785 2.53334,0 4.5066,-0.4794 5.91993,-1.4394 1.41334,-0.9867 2.12109,-2.3735 2.12109,-4.1602 0,-0.9066 -0.32093,-1.7729 -0.96093,-2.5996 -0.61333,-0.8267 -1.30674,-1.6394 -2.08008,-2.4394 1.09334,-0.3734 2.0131,-1.0009 2.75976,-1.8809 0.77333,-0.9067 1.16016,-1.9869 1.16016,-3.2402 0,-1.28 -0.44032,-2.2533 -1.32031,-2.92 -0.88,-0.6933 -2.21333,-1.0266 -4,-1 -1.78667,0 -3.35876,0.533 -4.71876,1.5996 -1.44,1.2 -2.16016,2.7617 -2.16016,4.6817 0,1.0666 0.2655,1.9988 0.79883,2.7988 0.53334,0.7734 1.14651,1.5078 1.83985,2.2012 0.69333,0.6933 1.38673,1.4135 2.08007,2.1601 0.72,0.72 1.24055,1.5863 1.56055,2.5997 -2.13333,0 -3.69303,-0.5473 -4.67969,-1.6407 -0.42667,-0.48 -0.73325,-0.9862 -0.91992,-1.5195 -0.50666,-1.4667 -0.85435,-2.3473 -1.04101,-2.6406 -0.18667,-0.32 -0.49327,-0.4805 -0.91993,-0.4805 -0.72,0 -1.39906,0.5206 -2.03906,1.5606 -0.28582,0.4846 -0.49776,0.9983 -0.65039,1.5351 -0.34315,0.2583 -0.7112,0.5191 -1.12695,0.7852 -1.33333,0.8266 -2.2531,1.2402 -2.75977,1.2402 -0.61333,0 -0.91991,-1.0678 -0.91993,-3.2012 0,-2.1333 0.27985,-4.8267 0.83985,-8.0801 l 4,0.2012 c 0.29333,0.027 0.54644,-0.321 0.75977,-1.041 0.24,-0.72 0.36133,-1.3188 0.36133,-1.7988 0,-0.1867 -0.0267,-0.3204 -0.0801,-0.4004 -0.0267,-0.1067 -0.29412,-0.1602 -0.80078,-0.1602 -0.48,0 -1.65288,-0.027 -3.51954,-0.08 l 1.64063,-2.8789 c -0.13328,-0.4266 -0.25466,-0.8278 -0.36133,-1.2012 -0.42666,-1.3333 -1.17356,-2.0124 -2.24024,-2.039 z m 15.17775,9.1992 c 0.42667,0 0.74565,0.1337 0.95899,0.4004 0.23999,0.24 0.36133,0.5199 0.36133,0.8399 0,0.6933 -0.5349,1.613 -1.60157,2.7597 -1.25334,-1.3867 -1.87891,-2.5863 -1.87891,-3.5996 0.23999,-0.053 0.54658,-0.1336 0.91992,-0.2402 0.4,-0.1067 0.81357,-0.1602 1.24024,-0.1602 z m -70.82814,3.7598 c 0.58667,0 0.88086,0.4527 0.88086,1.3593 0,0.9067 -0.2283,1.8408 -0.68164,2.8008 -0.69333,-0.6933 -1.03906,-1.5739 -1.03906,-2.6406 0,-0.32 0.0802,-0.6533 0.24023,-1 0.16,-0.3466 0.35961,-0.5195 0.59961,-0.5195 z m -30.78057,-17.9201 c -2.72,0 -5.52039,0.7737 -8.40039,2.3203 -1.17333,0.64 -2.13224,1.3067 -2.8789,2 -0.74667,0.6934 -1.1211,1.2942 -1.1211,1.8008 0,0.3734 0.32094,0.5586 0.96094,0.5586 0.64,0 1.3869,-0.1461 2.24023,-0.4394 4.4,-1.52 7.46589,-2.2937 9.19922,-2.3203 4.88,0 7.33271,3.0802 7.35938,9.2402 0,3.3333 -0.82518,6.1872 -2.47852,8.5605 -0.8,1.12 -1.76086,2.0398 -2.88086,2.7598 -1.12,0.6933 -2.3607,1.0391 -3.7207,1.0391 -1.33333,0 -2.87867,-0.1996 -4.63867,-0.5996 0.26666,-2.6667 0.812,-5.8004 1.63867,-9.4004 0.85333,-3.6 1.28125,-5.7996 1.28125,-6.5996 0,-0.6667 -0.10698,-1.2264 -0.32031,-1.6797 -0.18667,-0.4534 -0.38628,-0.6797 -0.59961,-0.6797 -1.14667,0 -2.13427,0.9321 -2.96094,2.7988 -2.34667,5.12 -3.77263,9.8669 -4.2793,14.2402 -2.21333,-0.5866 -3.53427,-0.8789 -3.96093,-0.8789 -0.42667,0 -0.63868,0.1605 -0.63868,0.4805 0,0.5867 0.41162,1.2657 1.23829,2.0391 0.85333,0.7733 1.92117,1.5202 3.20117,2.2402 0.08,1.0667 0.35984,1.8403 0.83984,2.3203 0.50667,0.4534 1.45318,0.6797 2.83985,0.6797 0.74666,0 1.21372,-0.2531 1.40039,-0.7598 1.68,0.48 3.06682,0.7188 4.16015,0.7188 2.72,0 5.08008,-0.4795 7.08008,-1.4395 2,-0.96 3.65232,-2.2131 4.95898,-3.7597 1.30667,-1.5734 2.27993,-3.3594 2.91993,-5.3594 0.64,-2 0.96093,-4.0267 0.96093,-6.0801 0.0267,-4.8266 -1.3745,-8.4274 -4.20117,-10.8008 -2.4,-2 -5.46588,-3 -9.19922,-3 z m -25.25891,6.6109 c -0.66206,0 -1.32336,0.166 -1.98542,0.497 -1.91261,0.9563 -3.60545,3.0068 -5.07669,6.1516 -0.44137,-0.092 -0.85435,-0.2112 -1.24055,-0.3583 -0.3862,-0.1656 -0.76363,-0.2479 -1.13144,-0.2479 -0.23907,0 -0.3583,0.1647 -0.35829,0.4957 0,0.4782 0.68964,1.0216 2.06893,1.6285 -0.51493,1.2505 -0.97471,2.5929 -1.37929,4.0274 -0.19223,0.6798 -0.3649,1.3581 -0.52801,2.0366 -0.063,0.039 -0.12555,0.08 -0.18857,0.1428 -0.14713,0.1655 -0.33157,0.3585 -0.55226,0.5792 -0.58849,0.5517 -1.28668,0.8369 -2.09586,0.8553 l -0.16568,0 c 0.42298,-0.9931 0.63442,-1.9311 0.63442,-2.8138 0,-0.9012 -0.21999,-1.6376 -0.66136,-2.2077 -0.44137,-0.5701 -1.1778,-0.8454 -2.20766,-0.827 -1.01148,0 -1.84733,0.3675 -2.50939,1.1031 -0.64367,0.7173 -0.95722,1.5176 -0.93884,2.4003 0,1.6736 0.65276,2.9507 1.95848,3.8335 -0.58849,0.3678 -1.33347,0.5522 -2.2346,0.5522 -0.88275,0 -1.57238,-0.2753 -2.06893,-0.827 -0.47815,-0.5701 -0.71658,-1.2697 -0.71658,-2.0972 0,-1.5816 0.50521,-2.8871 1.51668,-3.917 1.02987,-1.0483 2.29983,-1.5719 3.80785,-1.5719 1.52641,-0.018 2.28849,-0.1758 2.28849,-0.4701 0,-0.3862 -0.5421,-0.7992 -1.62714,-1.2405 -0.62526,-0.2575 -1.45257,-0.3866 -2.48244,-0.3866 -2.26203,0 -4.09253,0.7904 -5.4902,2.372 -1.39768,1.5816 -2.08733,3.4674 -2.06893,5.6559 -0.0184,1.5448 0.47826,2.8417 1.48973,3.89 1.01148,1.0299 2.52977,1.5436 4.55272,1.5436 2.04135,0 3.78818,-0.8543 5.24102,-2.5646 0.55172,0.1103 1.22292,0.1657 2.01371,0.1657 0.63587,0 1.22353,-0.1779 1.76856,-0.5186 -0.42141,2.5725 -0.63846,5.1356 -0.63846,7.6898 0,0.6988 0.21144,1.2976 0.63441,1.7941 0.44138,0.515 1.21335,0.7718 2.31677,0.7718 1.12183,0 2.04135,-0.2483 2.75858,-0.7448 0.86435,-0.5885 1.29712,-1.5719 1.29712,-2.9512 0,-0.7724 -0.20289,-3.1819 -0.60747,-7.2278 0.754,0.9379 2.02262,1.4062 3.8065,1.4062 1.14021,0 1.9873,-0.3576 2.53902,-1.0749 0.55171,-0.7356 0.82704,-1.6551 0.82704,-2.7585 0,-0.5517 -0.15612,-0.8284 -0.46875,-0.8284 -0.14712,0 -0.30323,0.1107 -0.46874,0.3314 -0.14713,0.2206 -0.34012,0.469 -0.5792,0.7448 -0.22068,0.2759 -0.48746,0.5242 -0.8001,0.7449 -0.29424,0.2207 -0.67167,0.3313 -1.13144,0.3313 -0.44137,0 -0.8458,-0.2483 -1.21361,-0.7448 -0.3678,-0.4966 -0.62603,-1.3239 -0.77315,-2.4825 -1.12182,0 -2.04135,0.1377 -2.75857,0.4135 0.29424,-1.5999 0.70856,-3.1083 1.24189,-4.5244 2.09652,-0.1103 3.87168,-0.6524 5.32453,-1.6271 1.45286,-0.9931 2.18793,-2.3454 2.20632,-4.0557 0,-0.9012 -0.21998,-1.6362 -0.66135,-2.2063 -0.42299,-0.5701 -1.25163,-0.8653 -2.4838,-0.8836 z m -0.2209,2.7316 c 0.33102,0 0.49702,0.2384 0.49702,0.7166 0,0.8459 -0.43142,1.5725 -1.29577,2.1794 -0.42298,0.3126 -1.30696,0.7638 -2.64946,1.3523 0.66205,-1.4345 1.30626,-2.5015 1.93153,-3.2004 0.64368,-0.6988 1.14887,-1.0479 1.51668,-1.0479 z m -14.31548,9.4341 c 0.40458,0 0.60748,0.3122 0.60748,0.9375 0,0.6253 -0.15746,1.2695 -0.47009,1.9315 -0.47816,-0.4781 -0.71659,-1.0855 -0.71659,-1.8211 0,-0.2207 0.0553,-0.4505 0.16568,-0.6896 0.11034,-0.2391 0.248,-0.3583 0.41352,-0.3583 z m 7.86086,6.4007 c 0.34941,2.6299 0.52395,4.5782 0.52395,5.8472 0,0.3862 -0.0922,0.7452 -0.27612,1.0762 -0.18391,0.3494 -0.38545,0.524 -0.60613,0.524 -0.42298,0 -0.63442,-0.3491 -0.63442,-1.0479 0,-0.092 0.0184,-0.3403 0.0552,-0.7449 0.16551,-1.8758 0.47773,-3.7603 0.93749,-5.6546 z m -77.39604,-25.2963 c -3.04,0 -5.87953,1.1194 -8.51953,3.3594 -0.34667,-0.2133 -0.68,-0.4808 -1,-0.8008 l -1.24023,-1.1992 c -0.48,-0.48 -0.90792,-0.7331 -1.28125,-0.7598 -0.53334,0 -0.79883,0.3601 -0.79883,1.0801 0,0.4 0.17286,0.9988 0.51953,1.7988 0.37333,0.7734 0.86713,1.5203 1.48047,2.2403 -0.8,0.9866 -1.52016,2.0669 -2.16016,3.2402 -1.92,3.5733 -2.88086,7.347 -2.88086,11.3203 0,3.2267 1,5.7472 3,7.5606 2,1.8133 4.81279,2.7187 8.43946,2.7187 2.98666,0 5.57505,-0.7201 7.76172,-2.1602 1.06666,-0.6933 1.91859,-1.5452 2.55859,-2.5585 10e-4,0 0.003,0 0.004,-0.01 0.46325,3.0043 1.71923,4.5254 3.78906,4.5254 2.13333,0.027 4.13333,-0.8397 6,-2.5997 0.83448,-0.7874 1.47472,-1.5837 1.9414,-2.3867 0.008,0.066 0.0108,0.1634 0.0195,0.2266 0.13333,0.9333 0.34729,1.7604 0.64062,2.4805 0.32,0.6933 0.70682,1.253 1.16016,1.6796 0.48,0.4 1.15906,0.5997 2.03906,0.5997 0.88,-10e-5 1.90674,-0.2531 3.08008,-0.7598 1.2,-0.5067 2.28023,-1.1466 3.24023,-1.9199 0.3555,-0.2883 0.67975,-0.589 0.99024,-0.8946 0.23382,0.9239 0.70525,1.6515 1.42578,2.1739 1.09333,0.7466 2.54799,1.121 4.36133,1.1211 2.24,0 4.02604,-0.9198 5.35937,-2.7598 -0.13333,0.6933 -0.38643,1.8394 -0.75977,3.4394 -1.52,0.3734 -2.94791,0.68 -4.28125,0.92 -1.33333,0.2666 -2.50619,0.5589 -3.51953,0.8789 -0.98666,0.3466 -1.77271,0.7746 -2.35937,1.2812 -0.56,0.5067 -0.83985,1.1857 -0.83985,2.0391 0,1.52 0.61318,2.7874 1.83985,3.8008 1.25333,1.0133 2.75953,1.5195 4.51953,1.5195 2.61333,0 4.55984,-0.7737 5.83984,-2.3203 0.58667,-0.72 1.06612,-1.5595 1.43946,-2.5195 0.37333,-0.9601 0.72101,-1.9724 1.04101,-3.0391 2.72,-1.2533 5.01419,-3.0003 6.88086,-5.2402 1.89333,-2.24 2.83984,-4.2009 2.83985,-5.8809 0,-0.8533 -0.18722,-1.2793 -0.56055,-1.2793 -0.24,0 -0.56094,0.2388 -0.96094,0.7188 -0.4,0.4533 -0.89184,1.0273 -1.47851,1.7207 -1.70666,1.9733 -3.42683,3.6399 -5.16016,5 2.26666,-7.5467 3.42518,-12.2525 3.47851,-14.1192 0,-0.56 -0.33333,-1.348 -1,-2.3613 -0.66666,-1.04 -1.37247,-1.573 -2.11914,-1.5996 -0.74666,0.027 -1.25286,0.36 -1.51953,1 -0.16,0.3733 -0.54682,1.5194 -1.16015,3.4394 -0.58667,1.92 -1.22659,4.3603 -1.91993,7.3203 -0.37333,1.0667 -0.82799,1.9597 -1.36132,2.6797 -0.53334,0.72 -1.35852,1.0801 -2.47852,1.0801 -1.12,0 -1.67969,-0.4794 -1.67969,-1.4394 -0.0267,-1.2534 0.49193,-3.7204 1.5586,-7.4004 0.21333,-0.72 0.32031,-1.3991 0.32031,-2.0391 0,-0.6667 -0.0268,-1.2407 -0.0801,-1.7207 -0.16,-1.6 -0.83906,-2.4004 -2.03906,-2.4004 -1.41334,0 -2.53466,0.3209 -3.36133,0.9609 l -1.16016,9.4805 c -0.0255,0.048 -0.0416,0.086 -0.0664,0.1328 -0.19515,0.1835 -0.40179,0.4077 -0.62891,0.7071 -0.58667,0.7733 -1.54752,1.5861 -2.88086,2.4394 -1.33333,0.8267 -2.2531,1.2402 -2.75976,1.2402 -0.61334,0 -0.91992,-1.0678 -0.91992,-3.2011 0,-2.1334 0.27984,-4.8268 0.83984,-8.0801 l 4,0.2012 c 0.29333,0.027 0.54643,-0.321 0.75976,-1.041 0.24,-0.72 0.36133,-1.3189 0.36133,-1.7989 0,-0.1866 -0.0267,-0.3204 -0.0801,-0.4004 -0.0267,-0.1066 -0.29411,-0.1601 -0.80078,-0.1601 -0.48,0 -1.65286,-0.027 -3.51953,-0.08 l 1.64063,-2.8789 c -0.13334,-0.4267 -0.25467,-0.8279 -0.36133,-1.2012 -0.42667,-1.3333 -1.17357,-2.0124 -2.24024,-2.0391 -1.33333,0 -2.63992,2.0535 -3.91992,6.1602 -0.42666,0.027 -0.82588,0.039 -1.19922,0.039 l -0.96093,0 c -0.45334,0.5333 -0.74558,1.0128 -0.87891,1.4394 -0.10667,0.4 -0.16016,0.9206 -0.16016,1.5606 0,0.2666 0.16047,0.4004 0.48047,0.4004 l 1.79883,0 c -0.594,2.6977 -0.89871,4.8555 -0.94141,6.5195 -0.15657,0.1235 -0.32578,0.2672 -0.53906,0.4805 -0.48,0.5066 -1.01294,1.0663 -1.59961,1.6797 -0.58666,0.5866 -1.1731,1.1339 -1.75976,1.6406 -0.58667,0.5067 -1.08047,0.7598 -1.48047,0.7598 -0.37334,0 -0.70667,-0.107 -1,-0.3204 -0.26667,-0.2133 -0.40039,-0.6001 -0.40039,-1.1601 0,-0.56 0.30659,-2.0127 0.91992,-4.3594 0.64,-2.6933 0.96094,-4.574 0.96094,-5.6406 0.0267,-0.7734 -0.14619,-1.5594 -0.51953,-2.3594 -0.45333,-1.04 -1.06652,-1.5605 -1.83985,-1.5605 -1.30667,0 -2.48148,1.7058 -3.52148,5.1191 -0.51193,1.6996 -0.82259,3.5524 -0.94141,5.5508 -0.25515,0.1839 -0.53781,0.4723 -0.85156,0.8906 -0.56,0.72 -1.18557,1.3332 -1.87891,1.8399 -2.10666,1.5466 -4.35976,2.3203 -6.75976,2.3203 -3.89334,0 -5.83985,-2.4403 -5.83985,-7.3203 0,-3.52 0.94651,-6.8945 2.83985,-10.1211 2.21333,0.8533 4.3451,1.2812 6.39843,1.2812 2.08,0 3.73427,-0.4814 4.96094,-1.4414 1.22667,-0.96 1.83985,-2.1452 1.83985,-3.5586 0,-0.9333 -0.16047,-1.7213 -0.48047,-2.3613 -0.90667,-1.7067 -2.89232,-2.5586 -5.95899,-2.5586 z m 0.0391,3.959 c 1.30667,0 1.96094,0.5206 1.96094,1.5606 0,0.88 -0.80039,1.3203 -2.40039,1.3203 -1.6,0 -3.07945,-0.2264 -4.43945,-0.6797 1.46666,-1.4667 3.09225,-2.2012 4.8789,-2.2012 z m 37.84961,30.8809 c -1.01333,2.1866 -2.1451,3.2793 -3.39843,3.2793 -0.56,0.027 -1.14644,-0.1338 -1.75977,-0.4805 -0.58667,-0.3467 -0.88086,-0.7727 -0.88086,-1.2793 -0.0267,-0.4 0.49388,-0.6798 1.56055,-0.8398 0.53333,-0.08 1.17325,-0.1727 1.91992,-0.2793 0.74667,-0.08 1.59859,-0.2138 2.55859,-0.4004 z m -24.77471,-36.5998 c -0.45333,0 -0.8545,0.1996 -1.20117,0.5996 -0.34667,0.3734 -0.71914,0.9722 -1.11914,1.7989 -0.37333,0.8 -0.56055,1.8143 -0.56055,3.041 0,1.2266 0.36008,2.3728 1.08008,3.4394 1.22667,0 2.3193,-0.3868 3.2793,-1.1601 0.98667,-0.8 1.48047,-1.8927 1.48047,-3.2793 0,-0.7467 -0.30659,-1.6664 -0.91992,-2.7598 -0.61334,-1.12 -1.2924,-1.6797 -2.03907,-1.6797 z" />
      <path
         sodipodi:nodetypes="csccscscsccscccsccccccscccscscccsccccscccsscccscsccccccsccsscccccscsscsscccccsscccscccccssccscscscccccccsccscsccscsccscscccssscscsccsccscsccsscccccccsccsccscscscsccscccscccccccsccccccccccscsccscsscsscccssscscscscsscccccccccccsccccccccccccccccccccscsccccscccccccccssccscscccccsscccscscccccsccssccccsscscccsccccsscssscsccccsccsccscs"
         d="m -336.40128,1290.9602 c 0.8,0.16 1.77326,0.2402 2.91992,0.2402 1.17334,0 2.23922,-0.4012 3.19922,-1.2012 0.0165,-0.014 0.0306,-0.03 0.0469,-0.045 -0.002,0.2633 -0.008,0.4914 -0.008,0.7657 0,1.4666 0.11938,2.5469 0.35938,3.2402 0.26666,0.6933 0.73372,1.0391 1.40039,1.0391 0.26667,0 0.57325,-0.066 0.91992,-0.1993 2.26667,-0.88 3.40039,-1.773 3.40039,-2.6797 0,-0.3733 -0.14612,-1.04 -0.43945,-2 m 8.39844,4.3594 c 0.0267,0.027 0.0802,0.039 0.16015,0.039 0.85334,0 2.82659,-0.9054 5.91992,-2.7187 0.19759,-0.1862 0.38028,-0.3749 0.55665,-0.5625 0.24858,0.8786 0.74067,1.589 1.48828,2.123 1.14666,0.8 2.77419,1.1992 4.88086,1.1992 1.19999,0 2.26588,-0.3476 3.19921,-1.041 0.93334,-0.72 1.66784,-1.5719 2.20118,-2.5586 m 10.86718,-1.461 c 0.008,0.065 0.0111,0.1592 0.0195,0.2207 0.13336,0.9334 0.34729,1.7605 0.64063,2.4805 0.32,0.6933 0.70683,1.253 1.16016,1.6797 0.48,0.4 1.15906,0.5996 2.03906,0.5996 0.88,0 1.90674,-0.2531 3.08008,-0.7598 1.19457,-0.5043 2.26982,-1.1415 3.22656,-1.9101 0.3079,0.4852 0.72538,0.9506 1.26954,1.3906 1.25333,0.9867 3.13396,1.4785 5.64062,1.4785 2.53334,0 4.5066,-0.4794 5.91993,-1.4394 1.41334,-0.9867 2.12109,-2.3735 2.12109,-4.1602 0,-0.9066 -0.32093,-1.7729 -0.96093,-2.5996 -0.61333,-0.8267 -1.30674,-1.6394 -2.08008,-2.4394 1.09334,-0.3734 2.0131,-1.0009 2.75976,-1.8809 0.77333,-0.9067 1.16016,-1.9869 1.16016,-3.2402 0,-1.28 -0.44032,-2.2533 -1.32031,-2.92 m -9.27931,13.4004 c -0.42667,-0.48 -0.73325,-0.9862 -0.91992,-1.5195 -0.50666,-1.4667 -0.85435,-2.3473 -1.04101,-2.6406 -0.18667,-0.32 -0.49327,-0.4805 -0.91993,-0.4805 -0.72,0 -1.39906,0.5206 -2.03906,1.5606 -0.28582,0.4846 -0.49776,0.9983 -0.65039,1.5351 -0.34315,0.2583 -0.7112,0.5191 -1.12695,0.7852 -1.33333,0.8266 -2.2531,1.2402 -2.75977,1.2402 -0.61333,0 -0.91991,-1.0678 -0.91993,-3.2012 0,-2.1333 0.27985,-4.8267 0.83985,-8.0801 l 4,0.2012 c 0.29333,0.027 0.54644,-0.321 0.75977,-1.041 0.24,-0.72 0.36133,-1.3188 0.36133,-1.7988 0,-0.1867 -0.0267,-0.3204 -0.0801,-0.4004 -0.0267,-0.1067 -0.29412,-0.1602 -0.80078,-0.1602 -0.48,0 -1.65288,-0.027 -3.51954,-0.08 l 1.64063,-2.8789 c -0.13328,-0.4266 -0.25466,-0.8278 -0.36133,-1.2012 -0.42666,-1.3333 -1.17356,-2.0124 -2.24024,-2.039 l 2.2e-4,7e-4 c -1.33334,0 -2.63993,2.0535 -3.91992,6.1602 -0.42667,0.027 -0.82589,0.039 -1.19922,0.039 l -0.96093,0 c -0.45333,0.5333 -0.74557,1.0127 -0.87891,1.4394 -0.10666,0.4 -0.16016,0.9206 -0.16016,1.5606 0,0.2666 0.16047,0.4003 0.48047,0.4003 l 1.79883,0 c -0.59332,2.6947 -0.89814,4.8504 -0.94141,6.5137 -0.15792,0.124 -0.33071,0.2702 -0.54687,0.4863 -0.48,0.5067 -1.01294,1.0664 -1.59961,1.6797 -0.58666,0.5867 -1.17311,1.134 -1.75977,1.6407 -0.58667,0.5066 -1.08046,0.7597 -1.48046,0.7597 -0.29333,0 -0.43946,-0.2263 -0.43946,-0.6797 -0.0267,-0.96 0.25318,-2.8138 0.83985,-5.5605 0.58666,-2.7467 0.88086,-4.7734 0.88086,-6.0801 0,-0.9333 -0.0946,-1.6267 -0.28125,-2.0801 -0.16,-0.4533 -0.58597,-0.6797 -1.2793,-0.6797 -2.77333,0 -4.16016,0.8931 -4.16016,2.6797 l 0,0.7207 0,0.959 c 0.0267,0.32 0.041,0.6534 0.041,1 0.0267,0.32 0.0534,0.5875 0.0801,0.8008 -0.26666,2.16 -0.77483,4.1189 -1.52149,5.8789 -0.96,2.2933 -2.09372,3.4414 -3.40039,3.4414 -1.2,0 -1.79883,-0.4814 -1.79883,-1.4414 0,-1.2 0.21396,-2.5725 0.64063,-4.1191 0.42666,-1.5734 0.76,-2.8676 1,-3.8809 0.26666,-1.04 0.33255,-2.2128 0.19922,-3.5195 -0.16,-1.6 -0.85342,-2.4004 -2.08008,-2.4004 -1.54667,0 -2.73388,0.3209 -3.56055,0.9609 l -1.11328,9.4473 c -0.15504,0.123 -0.32122,0.2626 -0.53125,0.4726 -0.48,0.5067 -1.01294,1.0664 -1.59961,1.6797 -0.58667,0.5867 -1.1731,1.134 -1.75976,1.6407 -0.58667,0.5066 -1.08047,0.7597 -1.48047,0.7597 -0.29334,0 -0.43946,-0.2139 -0.43946,-0.6406 0,-0.4267 0.0802,-0.9596 0.24024,-1.5996 0.18666,-0.6667 0.46651,-1.7593 0.83984,-3.2793 0.4,-1.52 0.59961,-3.0138 0.59961,-4.4805 0,-1.4933 -0.46706,-2.6394 -1.40039,-3.4394 -0.93333,-0.8267 -2.33255,-1.2403 -4.19922,-1.2403 -1.84,0 -3.38729,0.6524 -4.64062,1.959 -0.85334,-1.84 -1.75875,-2.7597 -2.71875,-2.7597 -0.56,0 -1.08055,0.3724 -1.56055,1.1191 -1.41333,2.16 -2.3207,4.4933 -2.7207,7 -0.12733,0.7292 -0.22091,1.6961 -0.29297,2.8223 -0.009,0.01 -0.0169,0.011 -0.0254,0.019 -0.21334,0.24 -0.48078,0.5198 -0.80078,0.8398 -0.85334,0.8 -1.86573,1.2136 -3.03907,1.2402 l -0.24023,0 c 0.61333,-1.44 0.91992,-2.8 0.91992,-4.08 0,-1.3067 -0.31898,-2.3745 -0.95898,-3.2012 m -5.36133,9.4394 c -0.85334,0.5334 -1.93357,0.8008 -3.24024,0.8008 -1.28,0 -2.28,-0.3992 -3,-1.1992 -0.69333,-0.8267 -1.03906,-1.841 -1.03906,-3.041 0,-2.2933 0.73255,-4.1864 2.19922,-5.6797 1.49333,-1.52 3.33483,-2.2793 5.52148,-2.2793 2.21334,-0.027 3.31836,-0.255 3.31836,-0.6816 0,-0.56 -0.78604,-1.1589 -2.35937,-1.7989 -0.90667,-0.3733 -2.10628,-0.5605 -3.59961,-0.5605 -3.28,0 -5.93427,1.1461 -7.96094,3.4394 -2.02666,2.2934 -3.02666,5.0279 -3,8.2012 m 86.62893,-8.3998 c 0.42667,0 0.74565,0.1337 0.95899,0.4004 0.23999,0.24 0.36133,0.5199 0.36133,0.8399 0,0.6933 -0.5349,1.613 -1.60157,2.7597 -1.25334,-1.3867 -1.87891,-2.5863 -1.87891,-3.5996 0.23999,-0.053 0.54658,-0.1336 0.91992,-0.2402 0.4,-0.1067 0.81357,-0.1602 1.24024,-0.1602 z m -70.82814,3.7598 c 0.58667,0 0.88086,0.4527 0.88086,1.3593 0,0.9067 -0.2283,1.8408 -0.68164,2.8008 -0.69333,-0.6933 -1.03906,-1.5739 -1.03906,-2.6406 0,-0.32 0.0802,-0.6533 0.24023,-1 0.16,-0.3466 0.35961,-0.5195 0.59961,-0.5195 z m -25.89971,3.8006 c -0.8,1.12 -1.76086,2.0398 -2.88086,2.7598 -1.12,0.6933 -2.3607,1.0391 -3.7207,1.0391 -1.33333,0 -2.87867,-0.1996 -4.63867,-0.5996 0.26666,-2.6667 0.812,-5.8004 1.63867,-9.4004 0.85333,-3.6 1.28125,-5.7996 1.28125,-6.5996 0,-0.6667 -0.10698,-1.2264 -0.32031,-1.6797 -0.18667,-0.4534 -0.38628,-0.6797 -0.59961,-0.6797 -1.14667,0 -2.13427,0.9321 -2.96094,2.7988 -2.34667,5.12 -3.77263,9.8669 -4.2793,14.2402 -2.21333,-0.5866 -3.53427,-0.8789 -3.96093,-0.8789 -0.42667,0 -0.63868,0.1605 -0.63868,0.4805 0,0.5867 0.41162,1.2657 1.23829,2.0391 0.85333,0.7733 1.92117,1.5202 3.20117,2.2402 0.08,1.0667 0.35984,1.8403 0.83984,2.3203 0.50667,0.4534 1.45318,0.6797 2.83985,0.6797 m 20.51953,-10.5996 c 0.64,-2 0.96093,-4.0267 0.96093,-6.0801 0.0267,-4.8266 -1.3745,-8.4274 -4.20117,-10.8008 -2.4,-2 -5.46588,-3 -9.19922,-3 -2.72,0 -5.52039,0.7737 -8.40039,2.3203 -1.17333,0.64 -2.13224,1.3067 -2.8789,2 -0.74667,0.6934 -1.1211,1.2942 -1.1211,1.8008 0,0.3734 0.32094,0.5586 0.96094,0.5586 m -27.96927,18.1663 c 0.55172,0.1103 1.22292,0.1657 2.01371,0.1657 0.63587,0 1.22353,-0.1779 1.76856,-0.5186 -0.42141,2.5725 -0.63846,5.1356 -0.63846,7.6898 0,0.6988 0.21144,1.2976 0.63441,1.7941 0.44138,0.515 1.21335,0.7718 2.31677,0.7718 1.12183,0 2.04135,-0.2483 2.75858,-0.7448 0.86435,-0.5885 1.29712,-1.5719 1.29712,-2.9512 0,-0.7724 -0.20289,-3.1819 -0.60747,-7.2278 m 7.17256,-2.4272 c 0,-0.5517 -0.15612,-0.8284 -0.46875,-0.8284 -0.14712,0 -0.30323,0.1107 -0.46874,0.3314 -0.14713,0.2206 -0.34012,0.469 -0.5792,0.7448 -0.22068,0.2759 -0.48746,0.5242 -0.8001,0.7449 -0.29424,0.2207 -0.67167,0.3313 -1.13144,0.3313 -0.44137,0 -0.8458,-0.2483 -1.21361,-0.7448 -0.3678,-0.4966 -0.62603,-1.3239 -0.77315,-2.4825 -1.12182,0 -2.04135,0.1377 -2.75857,0.4135 0.29424,-1.5999 0.70856,-3.1083 1.24189,-4.5244 2.09652,-0.1103 3.87168,-0.6524 5.32453,-1.6271 m -8.00094,-0.497 c -0.44137,-0.092 -0.85435,-0.2112 -1.24055,-0.3583 -0.3862,-0.1656 -0.76363,-0.2479 -1.13144,-0.2479 -0.23907,0 -0.3583,0.1647 -0.35829,0.4957 0,0.4782 0.68964,1.0216 2.06893,1.6285 -0.51493,1.2505 -0.97471,2.5929 -1.37929,4.0274 -0.19223,0.6798 -0.3649,1.3581 -0.52801,2.0366 -0.063,0.039 -0.12555,0.08 -0.18857,0.1428 -0.14713,0.1655 -0.33157,0.3585 -0.55226,0.5792 -0.58849,0.5517 -1.28668,0.8369 -2.09586,0.8553 l -0.16568,0 m -5.68283,-2.3451 c 0,1.6736 0.65276,2.9507 1.95848,3.8335 -0.58849,0.3678 -1.33347,0.5522 -2.2346,0.5522 -0.88275,0 -1.57238,-0.2753 -2.06893,-0.827 -0.47815,-0.5701 -0.71658,-1.2697 -0.71658,-2.0972 0,-1.5816 0.50521,-2.8871 1.51668,-3.917 1.02987,-1.0483 2.29983,-1.5719 3.80785,-1.5719 1.52641,-0.018 2.28849,-0.1758 2.28849,-0.4701 0,-0.3862 -0.5421,-0.7992 -1.62714,-1.2405 -0.62526,-0.2575 -1.45257,-0.3866 -2.48244,-0.3866 -2.26203,0 -4.09253,0.7904 -5.4902,2.372 -1.39768,1.5816 -2.08733,3.4674 -2.06893,5.6559 m 25.21238,-12.6345 c 0.33102,0 0.49702,0.2384 0.49702,0.7166 0,0.8459 -0.43142,1.5725 -1.29577,2.1794 -0.42298,0.3126 -1.30696,0.7638 -2.64946,1.3523 0.66205,-1.4345 1.30626,-2.5015 1.93153,-3.2004 0.64368,-0.6988 1.14887,-1.0479 1.51668,-1.0479 z m -14.31548,9.4341 c 0.40458,0 0.60748,0.3122 0.60748,0.9375 0,0.6253 -0.15746,1.2695 -0.47009,1.9315 -0.47816,-0.4781 -0.71659,-1.0855 -0.71659,-1.8211 0,-0.2207 0.0553,-0.4505 0.16568,-0.6896 0.11034,-0.2391 0.248,-0.3583 0.41352,-0.3583 z m 7.86086,6.4007 c 0.34941,2.6299 0.52395,4.5782 0.52395,5.8472 0,0.3862 -0.0922,0.7452 -0.27612,1.0762 -0.18391,0.3494 -0.38545,0.524 -0.60613,0.524 -0.42298,0 -0.63442,-0.3491 -0.63442,-1.0479 0,-0.092 0.0184,-0.3403 0.0552,-0.7449 0.16551,-1.8758 0.47773,-3.7603 0.93749,-5.6546 z m -70.95657,-20.3805 c 0,-0.9333 -0.16047,-1.7213 -0.48047,-2.3613 -0.90667,-1.7067 -2.89232,-2.5586 -5.95899,-2.5586 l -10e-6,0 c -3.04,0 -5.87953,1.1194 -8.51953,3.3594 -0.34667,-0.2133 -0.68,-0.4808 -1,-0.8008 l -1.24023,-1.1992 c -0.48,-0.48 -0.90792,-0.7331 -1.28125,-0.7598 -0.53334,0 -0.79883,0.3601 -0.79883,1.0801 0,0.4 0.17286,0.9988 0.51953,1.7988 0.37333,0.7734 0.86713,1.5203 1.48047,2.2403 -0.8,0.9866 -1.52016,2.0669 -2.16016,3.2402 -1.92,3.5733 -2.88086,7.347 -2.88086,11.3203 m 19.20118,8.1191 c 1.06666,-0.6933 1.91859,-1.5452 2.55859,-2.5585 10e-4,0 0.003,0 0.004,-0.01 0.46325,3.0043 1.71923,4.5254 3.78906,4.5254 2.13333,0.027 4.13333,-0.8397 6,-2.5997 0.83448,-0.7874 1.47472,-1.5837 1.9414,-2.3867 0.008,0.066 0.0108,0.1634 0.0195,0.2266 m 10.16015,2.0801 c 0.3555,-0.2883 0.67975,-0.589 0.99024,-0.8946 0.23382,0.9239 0.70525,1.6515 1.42578,2.1739 1.09333,0.7466 2.54799,1.121 4.36133,1.1211 2.24,0 4.02604,-0.9198 5.35937,-2.7598 -0.13333,0.6933 -0.38643,1.8394 -0.75977,3.4394 -1.52,0.3734 -2.94791,0.68 -4.28125,0.92 -1.33333,0.2666 -2.50619,0.5589 -3.51953,0.8789 -0.98666,0.3466 -1.77271,0.7746 -2.35937,1.2812 -0.56,0.5067 -0.83985,1.1857 -0.83985,2.0391 0,1.52 0.61318,2.7874 1.83985,3.8008 1.25333,1.0133 2.75953,1.5195 4.51953,1.5195 2.61333,0 4.55984,-0.7737 5.83984,-2.3203 0.58667,-0.72 1.06612,-1.5595 1.43946,-2.5195 0.37333,-0.9601 0.72101,-1.9724 1.04101,-3.0391 m 9.72071,-11.1211 c 0,-0.8533 -0.18722,-1.2793 -0.56055,-1.2793 -0.24,0 -0.56094,0.2388 -0.96094,0.7188 -0.4,0.4533 -0.89184,1.0273 -1.47851,1.7207 -1.70666,1.9733 -3.42683,3.6399 -5.16016,5 2.26666,-7.5467 3.42518,-12.2525 3.47851,-14.1192 0,-0.56 -0.33333,-1.348 -1,-2.3613 -0.66666,-1.04 -1.37247,-1.573 -2.11914,-1.5996 -0.74666,0.027 -1.25286,0.36 -1.51953,1 -0.16,0.3733 -0.54682,1.5194 -1.16015,3.4394 -0.58667,1.92 -1.22659,4.3603 -1.91993,7.3203 -0.37333,1.0667 -0.82799,1.9597 -1.36132,2.6797 -0.53334,0.72 -1.35852,1.0801 -2.47852,1.0801 -1.12,0 -1.67969,-0.4794 -1.67969,-1.4394 -0.0267,-1.2534 0.49193,-3.7204 1.5586,-7.4004 0.21333,-0.72 0.32031,-1.3991 0.32031,-2.0391 0,-0.6667 -0.0268,-1.2407 -0.0801,-1.7207 -0.16,-1.6 -0.83906,-2.4004 -2.03906,-2.4004 -1.41334,0 -2.53466,0.3209 -3.36133,0.9609 l -1.16016,9.4805 c -0.0255,0.048 -0.0416,0.086 -0.0664,0.1328 -0.19515,0.1835 -0.40179,0.4077 -0.62891,0.7071 -0.58667,0.7733 -1.54752,1.5861 -2.88086,2.4394 -1.33333,0.8267 -2.2531,1.2402 -2.75976,1.2402 -0.61334,0 -0.91992,-1.0678 -0.91992,-3.2011 0,-2.1334 0.27984,-4.8268 0.83984,-8.0801 l 4,0.2012 c 0.29333,0.027 0.54643,-0.321 0.75976,-1.041 0.24,-0.72 0.36133,-1.3189 0.36133,-1.7989 0,-0.1866 -0.0267,-0.3204 -0.0801,-0.4004 -0.0267,-0.1066 -0.29411,-0.1601 -0.80078,-0.1601 -0.48,0 -1.65286,-0.027 -3.51953,-0.08 l 1.64063,-2.8789 c -0.13334,-0.4267 -0.25467,-0.8279 -0.36133,-1.2012 -0.42667,-1.3333 -1.17357,-2.0124 -2.24024,-2.0391 -1.33333,0 -2.63992,2.0535 -3.91992,6.1602 -0.42666,0.027 -0.82588,0.039 -1.19922,0.039 l -0.96093,0 c -0.45334,0.5333 -0.74558,1.0128 -0.87891,1.4394 -0.10667,0.4 -0.16016,0.9206 -0.16016,1.5606 0,0.2666 0.16047,0.4004 0.48047,0.4004 l 1.79883,0 c -0.594,2.6977 -0.89871,4.8555 -0.94141,6.5195 -0.15657,0.1235 -0.32578,0.2672 -0.53906,0.4805 -0.48,0.5066 -1.01294,1.0663 -1.59961,1.6797 -0.58666,0.5866 -1.1731,1.1339 -1.75976,1.6406 -0.58667,0.5067 -1.08047,0.7598 -1.48047,0.7598 -0.37334,0 -0.70667,-0.107 -1,-0.3204 -0.26667,-0.2133 -0.40039,-0.6001 -0.40039,-1.1601 0,-0.56 0.30659,-2.0127 0.91992,-4.3594 0.64,-2.6933 0.96094,-4.574 0.96094,-5.6406 0.0267,-0.7734 -0.14619,-1.5594 -0.51953,-2.3594 -0.45333,-1.04 -1.06652,-1.5605 -1.83985,-1.5605 -1.30667,0 -2.48148,1.7058 -3.52148,5.1191 -0.51193,1.6996 -0.82259,3.5524 -0.94141,5.5508 -0.25515,0.1839 -0.53781,0.4723 -0.85156,0.8906 -0.56,0.72 -1.18557,1.3332 -1.87891,1.8399 -2.10666,1.5466 -4.35976,2.3203 -6.75976,2.3203 -3.89334,0 -5.83985,-2.4403 -5.83985,-7.3203 0,-3.52 0.94651,-6.8945 2.83985,-10.1211 m 6.79885,-4.6756 c 1.30667,0 1.96094,0.5206 1.96094,1.5606 0,0.88 -0.80039,1.3203 -2.40039,1.3203 -1.6,0 -3.07945,-0.2264 -4.43945,-0.6797 1.46666,-1.4667 3.09225,-2.2012 4.8789,-2.2012 z m 37.84961,30.8809 c -1.01333,2.1866 -2.1451,3.2793 -3.39843,3.2793 -0.56,0.027 -1.14644,-0.1338 -1.75977,-0.4805 -0.58667,-0.3467 -0.88086,-0.7727 -0.88086,-1.2793 m -18.73565,-38.1193 c -0.45333,0 -0.8545,0.1996 -1.20117,0.5996 -0.34667,0.3734 -0.71914,0.9722 -1.11914,1.7989 -0.37333,0.8 -0.56055,1.8143 -0.56055,3.041 0,1.2266 0.36008,2.3728 1.08008,3.4394 1.22667,0 2.3193,-0.3868 3.2793,-1.1601 0.98667,-0.8 1.48047,-1.8927 1.48047,-3.2793 0,-0.7467 -0.30659,-1.6664 -0.91992,-2.7598 -0.61334,-1.12 -1.2924,-1.6797 -2.03907,-1.6797 z"
         style="font-style:normal;font-variant:normal;font-weight:normal;font-stretch:normal;font-size:medium;line-height:125%;font-family:'Leckerli One';-inkscape-font-specification:'Leckerli One, Normal';text-align:start;letter-spacing:0px;word-spacing:0px;writing-mode:lr-tb;text-anchor:start;fill:none;fill-opacity:1;stroke:#535d6c;stroke-width:1px;stroke-linecap:butt;stroke-linejoin:miter;stroke-opacity:1"
         id="path4734"
         inkscape:connector-curvature="0" />
    </g>
  </g>
</svg>
